#N canvas 9 33 1352 682 10;
#N canvas 0 22 450 300 (subpatch) 0;
#X array gtable 26461 float 0;
#X coords 0 1 26460 -1 250 50 1;
#X restore 649 266 graph;
#X msg 652 467 start;
#X msg 699 467 stop;
#X obj 635 206 cnv 15 500 25 empty empty Audio_and_Envelope_Tables
20 12 0 14 -86277 -262144 0;
#N canvas 432 65 730 397 my_grainerAudioFile 0;
#X obj 21 -10 inlet;
#X obj 21 35 bng 15 250 50 0 empty empty empty 17 7 0 10 -262144 -1
-1;
#X obj 46 35 bng 15 250 50 0 empty empty empty 17 7 0 10 -262144 -1
-1;
#X obj 21 12 route 0 1;
#X obj 21 244 soundfiler;
#X obj 128 85 s restar;
#X obj 21 68 t b b;
#X obj 71 68 t b b;
#X obj 21 123 del 10;
#X obj 71 123 del 10;
#X msg 70 184 read -resize ../waves/music.wav gtable;
#X msg 21 154 read -resize ../waves/Flauta.wav gtable;
#X obj 406 43 openpanel;
#X obj 406 -9 inlet;
#X msg 406 227 read -resize \$1 gtable;
#X obj 406 68 t s b;
#X obj 485 85 splitfilename;
#X obj 560 253 outlet;
#X connect 0 0 3 0;
#X connect 1 0 6 0;
#X connect 2 0 7 0;
#X connect 3 0 1 0;
#X connect 3 1 2 0;
#X connect 6 0 8 0;
#X connect 6 1 5 0;
#X connect 7 0 9 0;
#X connect 7 1 5 0;
#X connect 8 0 11 0;
#X connect 9 0 10 0;
#X connect 10 0 4 0;
#X connect 11 0 4 0;
#X connect 12 0 15 0;
#X connect 13 0 12 0;
#X connect 14 0 4 0;
#X connect 15 0 14 0;
#X connect 15 0 16 0;
#X connect 15 1 5 0;
#X connect 16 1 17 0;
#X restore 911 282 pd my_grainerAudioFile;
#X obj 911 250 vradio 15 1 0 2 empty gt empty 0 -8 0 10 -262144 -1
-1 1;
#X text 930 248 Flauta.wav;
#X text 930 263 music.wav;
#X obj 580 -113 cnv 15 500 30 empty empty Proyecto_"Síntesis_Espacial_del_Sonido_en_la_Música_Electroacústica"
30 12 0 10 -86277 -262144 0;
#X obj 580 -83 cnv 15 500 30 empty empty Universidad_Nacional_de_Quilmes_Argentina
125 10 0 10 -86277 -262144 0;
#X obj -22 -113 cnv 15 600 30 empty empty GRAINER_DINAMICS_by_Pablo_Di_Liscia_and_Esteban_Calcagno_UNQ_2014
10 15 0 14 -82325 -262144 0;
#X obj 635 -46 cnv 15 500 25 empty empty Grain_Parameters 20 12 0 14
-86277 -262144 0;
#N canvas 330 22 713 647 my_grainerEnvelopeTable 0;
#X obj 338 37 vsl 15 45 0 2.333 0 0 empty $prst_cruva_fdr empty 0 -9
0 10 -228856 -1 -1 2514 1;
#X obj 355 36 vradio 12 1 0 4 $prst_cruva empty empty 0 -8 0 10 -191407
-1 -1 1;
#X obj 325 473 unpack f f;
#X obj 325 443 fade_bezier-ctrl;
#X obj 68 37 vsl 15 45 0 2.333 0 0 empty $prst_cruva_fdr empty 0 -9
0 10 -228856 -1 -1 2514 1;
#X obj 54 36 vradio 12 1 0 4 $prst_cruva empty empty 0 -8 0 10 -191407
-1 -1 1;
#X obj 17 467 unpack f f;
#N canvas 0 22 450 300 (subpatch) 0;
#X array envelope 120 float 0;
#X coords 0 1 119 0 250 50 1;
#X restore 85 35 graph;
#X obj 325 493 +;
#X obj 424 490 + 60;
#X obj 325 533 tabwrite envelope;
#X obj 382 46 bng 15 250 50 0 empty empty empty 17 7 0 10 -262144 -1
-1;
#X obj 489 61 s restar;
#X text 376 64 load;
#X obj 17 437 fade_bezier-ctrl;
#X obj 88 92 hsl 245 15 0 120 0 0 empty empty empty -2 -8 0 10 -262144
-1 -1 11900 1;
#X msg 206 114 60;
#X obj 206 85 bng 8 250 50 0 empty empty empty 17 7 0 10 -262144 -1
-1;
#X obj 116 504 expr $f2-$f1;
#X obj 116 484 f;
#X obj 116 464 t b f;
#X obj 17 417 f;
#X obj 89 400 t b f;
#X obj 418 424 expr 120 - $f1;
#X obj 325 423 f;
#X obj 391 406 t b f;
#X obj 89 380 step 1 1;
#X obj 89 360 t a a;
#X obj 391 386 step 1 1;
#X obj 391 366 t a a;
#X obj 17 524 tabwrite envelope;
#X obj 142 134 s my_grainerenvelopeTable-center;
#X obj 89 340 r my_grainerenvelopeTable-center;
#X obj 391 346 r my_grainerenvelopeTable-center;
#X obj 489 97 loadbang;
#X floatatom 155 397 5 0 0 0 - - -;
#X obj 4 201 s env-radioizq;
#X obj 97 200 s env-slideizq;
#X obj 191 200 s env-slidecen;
#X obj 286 199 s env-slideder;
#X obj 379 200 s env-radioder;
#X obj 50 -22 r rRadioIzq;
#X obj 137 -23 r rSlideIzq;
#X obj 212 -24 r rSlideCen;
#X obj 289 -26 r rSlideDer;
#X obj 366 -27 r rRadioDer;
#X connect 0 0 24 0;
#X connect 0 0 39 0;
#X connect 1 0 3 1;
#X connect 1 0 40 0;
#X connect 2 0 8 0;
#X connect 2 1 9 0;
#X connect 3 0 2 0;
#X connect 3 3 0 0;
#X connect 4 0 21 0;
#X connect 4 0 37 0;
#X connect 5 0 14 1;
#X connect 5 0 36 0;
#X connect 6 0 30 0;
#X connect 6 1 19 0;
#X connect 8 0 10 0;
#X connect 9 0 10 1;
#X connect 11 0 12 0;
#X connect 14 0 6 0;
#X connect 14 3 4 0;
#X connect 14 3 35 0;
#X connect 15 0 31 0;
#X connect 15 0 38 0;
#X connect 16 0 15 0;
#X connect 17 0 16 0;
#X connect 18 0 30 1;
#X connect 19 0 18 0;
#X connect 20 0 19 0;
#X connect 20 1 18 1;
#X connect 21 0 14 0;
#X connect 22 0 21 0;
#X connect 22 1 14 2;
#X connect 22 1 20 0;
#X connect 23 0 3 2;
#X connect 24 0 3 0;
#X connect 25 0 24 0;
#X connect 25 1 9 1;
#X connect 25 1 23 0;
#X connect 26 0 22 0;
#X connect 27 0 26 0;
#X connect 27 1 26 1;
#X connect 28 0 25 0;
#X connect 29 0 28 0;
#X connect 29 1 28 1;
#X connect 32 0 27 0;
#X connect 33 0 29 0;
#X connect 34 0 16 0;
#X connect 41 0 5 0;
#X connect 42 0 4 0;
#X connect 43 0 15 0;
#X connect 44 0 0 0;
#X connect 45 0 1 0;
#X coords 0 -1 1 1 360 90 2 50 20;
#X restore 649 325 pd my_grainerEnvelopeTable;
#X obj 635 429 cnv 15 500 25 empty empty Main_Control_and_Settings
20 12 0 14 -86277 -262144 0;
#X obj 635 184 s mess0;
#N canvas 387 123 420 364 output 0;
#X obj 174 329 dac~ 1 2;
#X obj 111 31 inlet~;
#X obj 181 31 inlet~;
#X obj 261 31 inlet~;
#X text 110 4 stereo 1;
#X text 180 4 stereo 2;
#X text 260 4 mono;
#X obj 129 105 hsl 100 20 0 1 0 0 empty empty level 35 10 0 10 -203904
-4160 -1 9900 1;
#X obj 234 105 tgl 20 0 empty empty dsp 1 9 0 10 -204786 -4160 -1 1
1;
#X obj 111 295 *~;
#X obj 181 295 *~;
#X obj 261 295 *~;
#X msg 323 179 \; pd dsp 1;
#X msg 342 146 \; pd dsp 0;
#X obj 323 125 sel 1 0;
#X obj 103 105 tgl 20 0 empty empty M 7 9 0 10 -261234 -260097 -33289
0 1;
#X msg 72 261 0 20;
#X obj 126 217 f;
#X obj 126 278 line~;
#X obj 122 195 bng 15 250 50 0 empty empty empty 17 7 0 10 -262144
-1 -1;
#X obj 72 192 bng 15 250 50 0 empty empty empty 17 7 0 10 -262144 -1
-1;
#X msg 126 237 \$1 20;
#X obj 103 175 sel 1 0;
#X obj 126 258 spigot;
#X obj 159 150 invert;
#X obj 103 133 t a a;
#X text 58 105 (Mute);
#X obj 59 67 loadbang;
#X msg 59 88 0;
#X connect 1 0 9 0;
#X connect 2 0 10 0;
#X connect 3 0 11 0;
#X connect 7 0 17 0;
#X connect 8 0 14 0;
#X connect 9 0 0 0;
#X connect 10 0 0 1;
#X connect 11 0 0 0;
#X connect 11 0 0 1;
#X connect 14 0 12 0;
#X connect 14 1 13 0;
#X connect 15 0 25 0;
#X connect 16 0 18 0;
#X connect 17 0 21 0;
#X connect 18 0 9 1;
#X connect 18 0 10 1;
#X connect 18 0 11 1;
#X connect 19 0 17 0;
#X connect 20 0 16 0;
#X connect 21 0 23 0;
#X connect 22 0 20 0;
#X connect 22 1 19 0;
#X connect 23 0 18 0;
#X connect 24 0 23 1;
#X connect 25 0 22 0;
#X connect 25 1 24 0;
#X connect 27 0 28 0;
#X connect 28 0 15 0;
#X coords 0 -1 1 1 158 30 2 100 100;
#X restore 676 505 pd output;
#X obj 1040 253 bng 15 250 50 0 empty empty Open_file 17 7 0 10 -262144
-1 -1;
#X symbolatom 911 302 10 0 0 0 - - -;
#X obj 635 -18 my_grainerParameters2 1;
#N canvas 99 22 1152 628 DINAMIC 0;
#N canvas 42 71 691 427 my_grainerEnvelopeTable 0;
#X obj 163 217 s GAP-sec;
#X obj 313 42 bng 15 250 50 0 reset-GAP-sec all-reset RESET 17 7 0
10 -258113 -1 -1;
#X text 310 59 Time ms;
#X obj 311 75 nbx 5 18 -1e+37 1e+37 0 0 empty empty empty 0 -8 0 10
-262144 -1 -1 20000 256;
#X obj 372 -30 r on-off-GAP-sec;
#X obj 55 37 envgen 250 50 1 0  ;
#X msg 372 115 duration \$1;
#X obj 186 166 pack \$1 \$2;
#X obj 163 191 line;
#X obj 313 25 bng 15 250 50 0 empty empty RUN 17 7 0 10 -4034 -1 -1
;
#X msg 292 200 0;
#X obj 292 173 r reset-GAP-sec;
#X text 53 20 GAP-sec;
#X msg 10 17 dump;
#X obj 35 194 list trim;
#X obj 35 165 list prepend set add;
#X obj 56 243 s D-GAPsec;
#X obj 145 -120 r uno;
#X msg 562 76 0 1;
#X obj 10 -3 r savegapsec;
#X obj 24 58 bng 15 250 50 0 empty empty empty 17 7 0 10 -262144 -1
-1;
#X floatatom 227 261 5 0 0 0 - - -;
#X obj 95 -87 t b b b s;
#X obj 99 -34 bng 15 250 50 0 empty empty empty 17 7 0 10 -262144 -1
-1;
#X msg 180 -20 0.1 30000 0.1;
#X obj 509 0 r lb1;
#X msg 509 32 5000;
#X obj 211 -63 delay 200;
#X obj 216 -89 bng 15 250 50 0 empty empty empty 17 7 0 10 -262144
-1 -1;
#X obj 200 -42 bng 15 250 50 0 empty empty empty 17 7 0 10 -262144
-1 -1;
#X obj 388 9 t b b;
#X obj 445 17 r Gtime;
#X obj 298 236 unpack \$1 \$2;
#X floatatom 297 279 5 0 0 0 - - -;
#X floatatom 356 283 5 0 0 0 - - -;
#X connect 1 0 18 0;
#X connect 3 0 6 0;
#X connect 3 0 7 1;
#X connect 4 0 30 0;
#X connect 5 0 7 0;
#X connect 5 1 15 0;
#X connect 7 0 8 0;
#X connect 7 0 32 0;
#X connect 8 0 0 0;
#X connect 8 0 21 0;
#X connect 9 0 5 0;
#X connect 10 0 0 0;
#X connect 11 0 10 0;
#X connect 13 0 5 0;
#X connect 14 0 16 0;
#X connect 15 0 14 0;
#X connect 17 0 22 0;
#X connect 17 0 24 0;
#X connect 17 0 28 0;
#X connect 18 0 5 0;
#X connect 19 0 13 0;
#X connect 19 0 20 0;
#X connect 22 0 24 0;
#X connect 22 0 23 0;
#X connect 22 1 24 0;
#X connect 22 2 24 0;
#X connect 22 3 24 0;
#X connect 24 0 5 0;
#X connect 25 0 26 0;
#X connect 26 0 3 0;
#X connect 27 0 29 0;
#X connect 28 0 27 0;
#X connect 29 0 24 0;
#X connect 30 0 9 0;
#X connect 30 1 3 0;
#X connect 31 0 3 0;
#X connect 32 0 33 0;
#X connect 32 1 34 0;
#X coords 0 -1 1 1 320 75 2 50 20;
#X restore 102 121 pd my_grainerEnvelopeTable;
#N canvas 0 237 1363 399 GENERAL-ON-OFF 0;
#X obj 221 287 s on-off-GAP-dev;
#X obj 422 109 s on-off-SIZE-sec;
#X obj 419 288 s on-off-SIZE-dev;
#X obj 813 105 s on-off-START-ini;
#X obj 817 282 s on-off-START-dev;
#X obj 1044 105 s on-off-AMP-0-1;
#X obj 1036 281 s on-off-AMP-dev;
#X obj 1237 100 s on-off-PAN-deg;
#X obj 1236 278 s on-off-PAN-dev;
#X obj 618 107 s on-off-INC-nor;
#X obj 633 285 s on-off-INC-dev;
#X obj 221 145 r \$0-toggle;
#X obj 295 145 r \$0-GAP-dev;
#X obj 419 145 r \$0-toggle;
#X obj 496 144 r \$0-SIZE-dev;
#X obj 631 147 r \$0-toggle;
#X obj 704 147 r \$0-INC-dev;
#X obj 817 147 r \$0-toggle;
#X obj 904 146 r \$0-START-dev;
#X obj 1036 146 r \$0-toggle;
#X obj 1113 146 r \$0-AMP-dev;
#X obj 1236 145 r \$0-toggle;
#X obj 1314 144 r \$0-PAN-dev;
#X obj 422 -4 r \$0-toggle;
#X obj 501 -4 r \$0-SIZE-sec;
#X obj 618 -3 r \$0-toggle;
#X obj 693 -3 r \$0-INC-nor;
#X obj 812 -6 r \$0-toggle;
#X obj 890 -7 r \$0-START-ini;
#X obj 1043 -6 r \$0-toggle;
#X obj 1118 -6 r \$0-AMP-0-1;
#X obj 1235 -6 r \$0-toggle;
#X obj 1311 -7 r \$0-PAN-deg;
#X obj 40 99 tgl 15 0 \$0-GAP-sec empty GAP-sec 0 -10 0 10 -262144
-1 -1 1 1;
#X obj 103 99 tgl 15 0 \$0-GAP-dev empty GAP-dev 0 -10 0 10 -262144
-1 -1 1 1;
#X obj 40 140 tgl 15 0 \$0-SIZE-sec empty SIZE-sec 0 -10 0 10 -262144
-1 -1 1 1;
#X obj 103 140 tgl 15 0 \$0-SIZE-dev empty SIZE-dev 0 -10 0 10 -262144
-1 -1 1 1;
#X obj 40 179 tgl 15 0 \$0-INC-nor empty INC-nor 0 -10 0 10 -262144
-1 -1 1 1;
#X obj 103 179 tgl 15 0 \$0-INC-dev empty INC-dev 0 -10 0 10 -262144
-1 -1 1 1;
#X obj 41 217 tgl 15 0 \$0-START-ini empty START-ini 0 -10 0 10 -262144
-1 -1 1 1;
#X obj 104 217 tgl 15 0 \$0-START-dev empty START-dev 0 -10 0 10 -262144
-1 -1 1 1;
#X obj 41 258 tgl 15 0 \$0-AMP-0-1 empty AMP-0-1 0 -10 0 10 -262144
-1 -1 1 1;
#X obj 104 258 tgl 15 0 \$0-AMP-dev empty AMP-dev 0 -10 0 10 -262144
-1 -1 1 1;
#X obj 41 297 tgl 15 0 \$0-PAN-deg empty PAN-deg 0 -10 0 10 -262144
-1 -1 1 1;
#X obj 104 297 tgl 15 0 \$0-PAN-dev empty PAN-dev 0 -10 0 10 -262144
-1 -1 1 1;
#X obj 97 38 bng 40 250 50 0 all-reset empty RESET 0 -10 0 10 -258113
-1 -1;
#X obj 38 37 bng 40 250 50 0 \$0-toggle empty RUN 0 -10 0 10 -4034
-1 -1;
#X obj 221 -3 r \$0-toggle;
#X obj 221 23 int;
#X floatatom 221 44 5 0 0 0 - - -;
#X obj 221 65 route 1;
#X obj 300 -3 r \$0-GAP-sec;
#X obj 221 109 s on-off-GAP-sec;
#X obj 221 184 int;
#X floatatom 221 205 5 0 0 0 - - -;
#X obj 221 226 route 1;
#X obj 422 25 int;
#X floatatom 422 46 5 0 0 0 - - -;
#X obj 422 67 route 1;
#X obj 618 20 int;
#X floatatom 618 41 5 0 0 0 - - -;
#X obj 618 62 route 1;
#X obj 419 187 int;
#X floatatom 419 208 5 0 0 0 - - -;
#X obj 419 229 route 1;
#X obj 632 187 int;
#X floatatom 632 208 5 0 0 0 - - -;
#X obj 632 229 route 1;
#X obj 817 184 int;
#X floatatom 817 205 5 0 0 0 - - -;
#X obj 817 226 route 1;
#X obj 1036 181 int;
#X floatatom 1036 202 5 0 0 0 - - -;
#X obj 1036 223 route 1;
#X obj 1236 180 int;
#X floatatom 1236 201 5 0 0 0 - - -;
#X obj 1236 222 route 1;
#X obj 813 18 int;
#X floatatom 813 39 5 0 0 0 - - -;
#X obj 813 60 route 1;
#X obj 1044 31 int;
#X floatatom 1044 52 5 0 0 0 - - -;
#X obj 1044 73 route 1;
#X obj 1236 24 int;
#X floatatom 1236 45 5 0 0 0 - - -;
#X obj 1236 68 route 1;
#X obj 34 -5 inlet;
#X obj 99 -5 inlet;
#X obj 144 -5 loadbang;
#X connect 11 0 53 0;
#X connect 12 0 53 1;
#X connect 13 0 62 0;
#X connect 14 0 62 1;
#X connect 15 0 65 0;
#X connect 16 0 65 1;
#X connect 17 0 68 0;
#X connect 18 0 68 1;
#X connect 19 0 71 0;
#X connect 20 0 71 1;
#X connect 21 0 74 0;
#X connect 22 0 74 1;
#X connect 23 0 56 0;
#X connect 24 0 56 1;
#X connect 25 0 59 0;
#X connect 26 0 59 1;
#X connect 27 0 77 0;
#X connect 28 0 77 1;
#X connect 29 0 80 0;
#X connect 30 0 80 1;
#X connect 31 0 83 0;
#X connect 32 0 83 1;
#X connect 47 0 48 0;
#X connect 48 0 49 0;
#X connect 49 0 50 0;
#X connect 50 0 52 0;
#X connect 51 0 48 1;
#X connect 53 0 54 0;
#X connect 54 0 55 0;
#X connect 55 0 0 0;
#X connect 56 0 57 0;
#X connect 57 0 58 0;
#X connect 58 0 1 0;
#X connect 59 0 60 0;
#X connect 60 0 61 0;
#X connect 61 0 9 0;
#X connect 62 0 63 0;
#X connect 63 0 64 0;
#X connect 64 0 2 0;
#X connect 65 0 66 0;
#X connect 66 0 67 0;
#X connect 67 0 10 0;
#X connect 68 0 69 0;
#X connect 69 0 70 0;
#X connect 70 0 4 0;
#X connect 71 0 72 0;
#X connect 72 0 73 0;
#X connect 73 0 6 0;
#X connect 74 0 75 0;
#X connect 75 0 76 0;
#X connect 76 0 8 0;
#X connect 77 0 78 0;
#X connect 78 0 79 0;
#X connect 79 0 3 0;
#X connect 80 0 81 0;
#X connect 81 0 82 0;
#X connect 82 0 5 0;
#X connect 83 0 84 0;
#X connect 84 0 85 0;
#X connect 85 0 7 0;
#X connect 86 0 46 0;
#X connect 87 0 45 0;
#X connect 88 0 33 0;
#X connect 88 0 34 0;
#X connect 88 0 35 0;
#X connect 88 0 36 0;
#X connect 88 0 37 0;
#X connect 88 0 38 0;
#X connect 88 0 39 0;
#X connect 88 0 40 0;
#X connect 88 0 41 0;
#X connect 88 0 42 0;
#X connect 88 0 43 0;
#X connect 88 0 44 0;
#X coords 0 -1 1 1 150 300 2 20 20;
#X restore 888 84 pd GENERAL-ON-OFF;
#N canvas 746 68 1025 486 my_grainerEnvelopeTable 0;
#X obj 312 45 bng 15 250 50 0 reset-GAP-dev all-reset RESET 17 7 0
10 -258113 -1 -1;
#X text 310 59 Time ms;
#X obj 313 74 nbx 5 18 -1e+37 1e+37 0 0 empty empty empty 0 -8 0 10
-262144 -1 -1 20000 256;
#X msg 372 115 duration \$1;
#X obj 186 166 pack \$1 \$2;
#X obj 163 191 line;
#X obj 312 27 bng 15 250 50 0 empty empty RUN 17 7 0 10 -4034 -1 -1
;
#X msg 292 200 0;
#X obj 163 282 s GAP-dev;
#X text 52 19 GAP-dev;
#X obj 292 173 r reset-GAP-dev;
#X obj 163 226 maxlib/scale 0 1 0 2;
#X obj 371 -4 r on-off-GAP-dev;
#X obj 45 204 list trim;
#X obj 45 175 list prepend set add;
#X obj 66 253 s D-GAPdev;
#X msg 14 78 dump;
#X obj 105 -82 t b b;
#X msg 155 -63 0 30000 0;
#X obj 155 -110 r dos;
#X msg 572 86 0 1;
#X obj 14 -7 r savegapdev;
#X msg 519 31 5000;
#X obj 519 10 r lb2;
#X obj 385 24 t b b;
#X obj 446 27 r Gtime;
#X obj 55 36 envgen 250 50 1 0  ;
#X floatatom 214 200 5 0 0 0 - - -;
#X obj 301 247 unpack \$1 \$2;
#X floatatom 300 290 5 0 0 0 - - -;
#X floatatom 359 294 5 0 0 0 - - -;
#X connect 0 0 20 0;
#X connect 2 0 3 0;
#X connect 2 0 4 1;
#X connect 4 0 5 0;
#X connect 4 0 28 0;
#X connect 5 0 11 0;
#X connect 5 0 27 0;
#X connect 6 0 26 0;
#X connect 7 0 8 0;
#X connect 10 0 7 0;
#X connect 11 0 8 0;
#X connect 12 0 24 0;
#X connect 13 0 15 0;
#X connect 14 0 13 0;
#X connect 16 0 26 0;
#X connect 17 0 18 0;
#X connect 18 0 26 0;
#X connect 19 0 18 0;
#X connect 19 0 17 0;
#X connect 20 0 26 0;
#X connect 21 0 16 0;
#X connect 22 0 2 0;
#X connect 23 0 22 0;
#X connect 24 0 6 0;
#X connect 24 1 2 0;
#X connect 25 0 2 0;
#X connect 26 0 4 0;
#X connect 26 1 14 0;
#X connect 28 0 29 0;
#X connect 28 1 30 0;
#X coords 0 -1 1 1 320 75 2 50 20;
#X restore 426 121 pd my_grainerEnvelopeTable;
#N canvas 251 280 1025 486 my_grainerEnvelopeTable 0;
#X obj 313 41 bng 15 250 50 0 reset-SIZE-sec all-reset RESET 17 7 0
10 -258113 -1 -1;
#X obj 312 75 nbx 5 18 -1e+37 1e+37 0 0 empty empty empty 0 -8 0 10
-262144 -1 -1 20000 256;
#X obj 55 37 envgen 250 50 1 0  ;
#X msg 372 115 duration \$1;
#X obj 186 166 pack \$1 \$2;
#X obj 163 191 line;
#X obj 313 24 bng 15 250 50 0 empty empty RUN 17 7 0 10 -4034 -1 -1
;
#X msg 292 200 0;
#X obj 163 217 s SIZE-sec;
#X text 53 20 SIZE-sec;
#X obj 292 173 r reset-SIZE-sec;
#X obj 371 -4 r on-off-SIZE-sec;
#X obj 40 197 list trim;
#X obj 40 168 list prepend set add;
#X obj 61 246 s D-SIZEsec;
#X msg 12 74 dump;
#X obj 115 -72 t b b;
#X msg 165 -53 0 20000 1;
#X obj 165 -100 r tres;
#X msg 582 96 0 1;
#X obj 12 -5 r savesizesec;
#X text 312 59 Time ms;
#X msg 529 52 5000;
#X obj 529 20 r lb3;
#X obj 393 30 t b b;
#X obj 456 37 r Gtime;
#X connect 0 0 19 0;
#X connect 1 0 3 0;
#X connect 1 0 4 1;
#X connect 2 0 4 0;
#X connect 2 1 13 0;
#X connect 3 0 2 0;
#X connect 4 0 5 0;
#X connect 5 0 8 0;
#X connect 6 0 2 0;
#X connect 7 0 8 0;
#X connect 10 0 7 0;
#X connect 11 0 24 0;
#X connect 12 0 14 0;
#X connect 13 0 12 0;
#X connect 15 0 2 0;
#X connect 16 0 17 0;
#X connect 17 0 2 0;
#X connect 18 0 17 0;
#X connect 18 0 16 0;
#X connect 19 0 2 0;
#X connect 20 0 15 0;
#X connect 22 0 1 0;
#X connect 23 0 22 0;
#X connect 24 0 6 0;
#X connect 24 1 1 0;
#X connect 25 0 1 0;
#X coords 0 -1 1 1 320 75 2 50 20;
#X restore 102 198 pd my_grainerEnvelopeTable;
#N canvas 251 280 1025 486 my_grainerEnvelopeTable 0;
#X obj 311 43 bng 15 250 50 0 reset-SIZE-dev all-reset RESET 17 7 0
10 -258113 -1 -1;
#X text 309 58 Time ms;
#X obj 311 73 nbx 5 18 -1e+37 1e+37 0 0 empty empty empty 0 -8 0 10
-262144 -1 -1 20000 256;
#X obj 54 37 envgen 250 50 1 0  ;
#X msg 372 115 duration \$1;
#X obj 186 166 pack \$1 \$2;
#X obj 163 191 line;
#X obj 311 25 bng 15 250 50 0 empty empty RUN 17 7 0 10 -4034 -1 -1
;
#X msg 292 200 0;
#X obj 163 226 maxlib/scale 0 1 0 2;
#X text 52 19 SIZE-dev;
#X obj 292 173 r reset-SIZE-dev;
#X obj 163 282 s SIZE-dev;
#X obj 371 -4 r on-off-SIZE-dev;
#X obj 55 214 list trim;
#X obj 55 185 list prepend set add;
#X obj 77 263 s D-SIZEdev;
#X msg 5 65 dump;
#X obj 125 -62 t b b;
#X msg 175 -43 0 20000 0;
#X obj 175 -90 r cuatro;
#X msg 592 106 0 1;
#X obj 5 -5 r savesizedev;
#X msg 539 62 5000;
#X obj 539 30 r lb4;
#X obj 383 30 t b b;
#X obj 466 47 r Gtime;
#X connect 0 0 21 0;
#X connect 2 0 4 0;
#X connect 2 0 5 1;
#X connect 3 0 5 0;
#X connect 3 1 15 0;
#X connect 4 0 3 0;
#X connect 5 0 6 0;
#X connect 6 0 9 0;
#X connect 7 0 3 0;
#X connect 8 0 12 0;
#X connect 9 0 12 0;
#X connect 11 0 8 0;
#X connect 13 0 25 0;
#X connect 14 0 16 0;
#X connect 15 0 14 0;
#X connect 17 0 3 0;
#X connect 18 0 19 0;
#X connect 19 0 3 0;
#X connect 20 0 19 0;
#X connect 20 0 18 0;
#X connect 21 0 3 0;
#X connect 22 0 17 0;
#X connect 23 0 2 0;
#X connect 24 0 23 0;
#X connect 25 0 7 0;
#X connect 25 1 2 0;
#X connect 26 0 2 0;
#X coords 0 -1 1 1 320 75 2 50 20;
#X restore 426 198 pd my_grainerEnvelopeTable;
#N canvas 261 315 1025 486 my_grainerEnvelopeTable 0;
#X obj 311 40 bng 15 250 50 0 reset-INC-nor all-reset empty 17 7 0
10 -258113 -1 -1;
#X text 309 58 Time ms;
#X obj 311 74 nbx 5 18 -1e+37 1e+37 0 0 empty empty empty 0 -8 0 10
-262144 -1 -1 20000 256;
#X obj 55 37 envgen 250 50 1 0  ;
#X msg 372 115 duration \$1;
#X obj 186 166 pack \$1 \$2;
#X obj 163 191 line;
#X obj 311 23 bng 15 250 50 0 empty empty RUN 17 7 0 10 -4034 -1 -1
;
#X msg 292 200 0;
#X text 52 20 INC-nor;
#X obj 371 -4 r on-off-INC-nor;
#X obj 292 173 r reset-INC-nor;
#X obj 163 241 s INC-nor;
#X obj 163 217 maxlib/scale 0 1 -0.5 2;
#X obj 36 192 list trim;
#X obj 36 163 list prepend set add;
#X obj 57 241 s D-INCnor;
#X msg 6 59 dump;
#X obj 135 -52 t b b;
#X msg 185 -33 0 960 1 1040 0 2480 1 1840 0 2720 1 3520 0 3040 1 2720
0 1680 0.98;
#X obj 185 -80 r cinco;
#X msg 602 116 0 1;
#X obj 6 -3 r saveincnor;
#X msg 549 72 5000;
#X obj 549 40 r lb5;
#X obj 384 41 t b b;
#X obj 476 57 r Gtime;
#X connect 0 0 21 0;
#X connect 2 0 4 0;
#X connect 2 0 5 1;
#X connect 3 0 5 0;
#X connect 3 1 15 0;
#X connect 4 0 3 0;
#X connect 5 0 6 0;
#X connect 6 0 13 0;
#X connect 7 0 3 0;
#X connect 8 0 12 0;
#X connect 10 0 25 0;
#X connect 11 0 8 0;
#X connect 13 0 12 0;
#X connect 14 0 16 0;
#X connect 15 0 14 0;
#X connect 17 0 3 0;
#X connect 18 0 19 0;
#X connect 19 0 3 0;
#X connect 20 0 19 0;
#X connect 20 0 18 0;
#X connect 21 0 3 0;
#X connect 22 0 17 0;
#X connect 23 0 2 0;
#X connect 24 0 23 0;
#X connect 25 0 7 0;
#X connect 25 1 2 0;
#X connect 26 0 2 0;
#X coords 0 -1 1 1 320 75 2 50 20;
#X restore 102 275 pd my_grainerEnvelopeTable;
#N canvas 251 280 1025 486 my_grainerEnvelopeTable 0;
#X obj 312 45 bng 15 250 50 0 reset-INC-dev all-reset RESET 17 7 0
10 -258113 -1 -1;
#X text 310 59 Time ms;
#X obj 311 74 nbx 5 18 -1e+37 1e+37 0 0 empty empty empty 0 -8 0 10
-262144 -1 -1 20000 256;
#X obj 55 37 envgen 250 50 1 0  ;
#X msg 372 115 duration \$1;
#X obj 186 166 pack \$1 \$2;
#X obj 163 191 line;
#X obj 312 27 bng 15 250 50 0 empty empty RUN 17 7 0 10 -4034 -1 -1
;
#X msg 292 200 0;
#X obj 163 226 maxlib/scale 0 1 0 2;
#X text 53 19 INC-dev;
#X obj 292 173 r reset-INC-dev;
#X obj 371 -4 r on-off-INC-dev;
#X obj 163 282 s INC-dev;
#X obj 23 230 list trim;
#X obj 23 201 list prepend set add;
#X obj 44 279 s D-INCdev;
#X msg 7 51 dump;
#X obj 145 -42 t b b;
#X msg 195 -23 0 20000 0;
#X obj 195 -70 r seis;
#X msg 612 126 0 1;
#X obj 4 10 r saveincdev;
#X msg 559 82 5000;
#X obj 559 50 r lb6;
#X obj 414 46 t b b;
#X obj 486 67 r Gtime;
#X connect 0 0 21 0;
#X connect 2 0 4 0;
#X connect 2 0 5 1;
#X connect 3 0 5 0;
#X connect 3 1 15 0;
#X connect 4 0 3 0;
#X connect 5 0 6 0;
#X connect 6 0 9 0;
#X connect 7 0 3 0;
#X connect 8 0 13 0;
#X connect 9 0 13 0;
#X connect 11 0 8 0;
#X connect 12 0 25 0;
#X connect 14 0 16 0;
#X connect 15 0 14 0;
#X connect 17 0 3 0;
#X connect 18 0 19 0;
#X connect 19 0 3 0;
#X connect 20 0 19 0;
#X connect 20 0 18 0;
#X connect 21 0 3 0;
#X connect 22 0 17 0;
#X connect 23 0 2 0;
#X connect 24 0 23 0;
#X connect 25 0 7 0;
#X connect 25 1 2 0;
#X connect 26 0 2 0;
#X coords 0 -1 1 1 320 75 2 50 20;
#X restore 426 275 pd my_grainerEnvelopeTable;
#N canvas 251 280 1025 486 my_grainerEnvelopeTable 0;
#X obj 310 40 bng 15 250 50 0 reset-START-ini all-reset RESET 17 7
0 10 -258113 -1 -1;
#X text 309 56 Time ms;
#X obj 310 73 nbx 5 18 -1e+37 1e+37 0 0 empty empty empty 0 -8 0 10
-262144 -1 -1 20000 256;
#X obj 54 37 envgen 250 50 1 0  ;
#X msg 372 115 duration \$1;
#X obj 186 166 pack \$1 \$2;
#X obj 163 191 line;
#X obj 310 23 bng 15 250 50 0 empty empty RUN 17 7 0 10 -4034 -1 -1
;
#X msg 292 200 0;
#X text 53 19 START-ini;
#X obj 371 -4 r on-off-START-ini;
#X obj 292 173 r reset-START-ini;
#X obj 163 241 s START-ini;
#X obj 35 189 list trim;
#X obj 35 160 list prepend set add;
#X obj 56 238 s D-STARTini;
#X msg 12 66 dump;
#X obj 155 -32 t b b;
#X msg 205 -13 0 20000 0;
#X obj 205 -60 r siete;
#X msg 622 136 0 1;
#X obj 15 -19 r savestartini;
#X msg 569 92 5000;
#X obj 569 60 r lb7;
#X obj 403 43 t b b;
#X obj 496 77 r Gtime;
#X connect 0 0 20 0;
#X connect 2 0 4 0;
#X connect 2 0 5 1;
#X connect 3 0 5 0;
#X connect 3 1 14 0;
#X connect 4 0 3 0;
#X connect 5 0 6 0;
#X connect 6 0 12 0;
#X connect 7 0 3 0;
#X connect 8 0 12 0;
#X connect 10 0 24 0;
#X connect 11 0 8 0;
#X connect 13 0 15 0;
#X connect 14 0 13 0;
#X connect 16 0 3 0;
#X connect 17 0 18 0;
#X connect 18 0 3 0;
#X connect 19 0 18 0;
#X connect 19 0 17 0;
#X connect 20 0 3 0;
#X connect 21 0 16 0;
#X connect 22 0 2 0;
#X connect 23 0 22 0;
#X connect 24 0 7 0;
#X connect 24 1 2 0;
#X connect 25 0 2 0;
#X coords 0 -1 1 1 320 75 2 50 20;
#X restore 102 352 pd my_grainerEnvelopeTable;
#N canvas 339 368 1025 486 my_grainerEnvelopeTable 0;
#X obj 312 45 bng 15 250 50 0 reset-INC-dev all-reset RESET 17 7 0
10 -258113 -1 -1;
#X text 310 59 Time ms;
#X obj 312 73 nbx 5 18 -1e+37 1e+37 0 0 empty empty empty 0 -8 0 10
-262144 -1 -1 20000 256;
#X obj 55 37 envgen 250 50 1 0  ;
#X msg 372 115 duration \$1;
#X obj 186 166 pack \$1 \$2;
#X obj 163 191 line;
#X obj 312 27 bng 15 250 50 0 empty empty RUN 17 7 0 10 -4034 -1 -1
;
#X msg 292 200 0;
#X text 53 19 START-dev;
#X obj 371 -4 r on-off-START-dev;
#X obj 292 173 r reset-START-dev;
#X obj 163 282 s START-dev;
#X obj 22 226 list trim;
#X obj 22 197 list prepend set add;
#X obj 43 275 s D-STARTdev;
#X msg 9 69 dump;
#X obj 165 -22 t b b;
#X msg 215 -3 0 20000 0;
#X obj 215 -50 r ocho;
#X msg 632 146 0 1;
#X obj 9 -18 r savestartdev;
#X msg 579 102 5000;
#X obj 579 70 r lb8;
#X obj 389 25 t b b;
#X obj 439 39 r Gtime;
#X connect 0 0 20 0;
#X connect 2 0 4 0;
#X connect 2 0 5 1;
#X connect 3 0 5 0;
#X connect 3 1 14 0;
#X connect 4 0 3 0;
#X connect 5 0 6 0;
#X connect 6 0 12 0;
#X connect 7 0 3 0;
#X connect 8 0 12 0;
#X connect 10 0 24 0;
#X connect 11 0 8 0;
#X connect 13 0 15 0;
#X connect 14 0 13 0;
#X connect 16 0 3 0;
#X connect 17 0 18 0;
#X connect 18 0 3 0;
#X connect 19 0 18 0;
#X connect 19 0 17 0;
#X connect 20 0 3 0;
#X connect 21 0 16 0;
#X connect 22 0 2 0;
#X connect 23 0 22 0;
#X connect 24 0 7 0;
#X connect 24 1 2 0;
#X connect 25 0 2 0;
#X coords 0 -1 1 1 320 75 2 50 20;
#X restore 426 352 pd my_grainerEnvelopeTable;
#N canvas 251 280 1025 486 my_grainerEnvelopeTable 0;
#X obj 312 41 bng 15 250 50 0 reset-AMP-0-1 all-reset RESET 17 7 0
10 -258113 -1 -1;
#X text 309 57 Time ms;
#X obj 311 73 nbx 5 18 -1e+37 1e+37 0 0 empty empty empty 0 -8 0 10
-262144 -1 -1 20000 256;
#X obj 54 37 envgen 250 50 1 0  ;
#X msg 372 115 duration \$1;
#X obj 186 166 pack \$1 \$2;
#X obj 163 191 line;
#X obj 312 24 bng 15 250 50 0 empty empty RUN 17 7 0 10 -4034 -1 -1
;
#X msg 292 200 0;
#X text 52 19 AMP-0-1;
#X obj 292 173 r reset-AMP-0-1;
#X obj 163 241 s AMP-0-1;
#X obj 371 -4 r on-off-AMP-0-1;
#X obj 163 216 maxlib/scale 0 1 0 2;
#X obj 25 211 list trim;
#X obj 25 182 list prepend set add;
#X obj 46 260 s D-AMP01;
#X msg 8 62 dump;
#X obj 175 -26 t b b;
#X msg 225 -7 0.24 19280 0.18 720 0;
#X obj 225 -54 r nueve;
#X msg 642 156 0 1;
#X obj 8 -14 r saveamp01;
#X msg 533 61 5000;
#X obj 533 29 r lb9;
#X obj 385 29 t b b;
#X obj 438 49 r Gtime;
#X connect 0 0 21 0;
#X connect 2 0 4 0;
#X connect 2 0 5 1;
#X connect 3 0 5 0;
#X connect 3 1 15 0;
#X connect 4 0 3 0;
#X connect 5 0 6 0;
#X connect 6 0 13 0;
#X connect 7 0 3 0;
#X connect 8 0 11 0;
#X connect 10 0 8 0;
#X connect 12 0 25 0;
#X connect 13 0 11 0;
#X connect 14 0 16 0;
#X connect 15 0 14 0;
#X connect 17 0 3 0;
#X connect 18 0 19 0;
#X connect 19 0 3 0;
#X connect 20 0 19 0;
#X connect 20 0 18 0;
#X connect 21 0 3 0;
#X connect 22 0 17 0;
#X connect 23 0 2 0;
#X connect 24 0 23 0;
#X connect 25 0 7 0;
#X connect 25 1 2 0;
#X connect 26 0 2 0;
#X coords 0 -1 1 1 320 75 2 50 20;
#X restore 102 430 pd my_grainerEnvelopeTable;
#N canvas 251 280 1025 486 my_grainerEnvelopeTable 0;
#X obj 313 46 bng 15 250 50 0 reset-AMP-dev all-reset RESET 17 7 0
10 -258113 -1 -1;
#X text 310 59 Time ms;
#X obj 312 74 nbx 5 18 -1e+37 1e+37 0 0 empty empty empty 0 -8 0 10
-262144 -1 -1 20000 256;
#X obj 55 37 envgen 250 50 1 0  ;
#X msg 372 115 duration \$1;
#X obj 186 166 pack \$1 \$2;
#X obj 163 191 line;
#X obj 313 28 bng 15 250 50 0 empty empty RUN 17 7 0 10 -4034 -1 -1
;
#X msg 292 200 0;
#X text 53 19 AMP-dev;
#X obj 371 -4 r on-off-AMP-dev;
#X obj 292 173 r reset-AMP-dev;
#X obj 163 282 s AMP-dev;
#X obj 163 242 maxlib/scale 0 1 0 2;
#X obj 11 235 list trim;
#X obj 11 206 list prepend set add;
#X obj 32 284 s D-AMPdev;
#X msg 8 68 dump;
#X obj 185 -23 t b b;
#X msg 235 -4 0 20000 0;
#X obj 235 -51 r diez;
#X msg 652 166 0 1;
#X obj 3 22 r saveampdev;
#X msg 513 56 5000;
#X obj 513 24 r lb10;
#X obj 396 39 t b b;
#X obj 437 45 r Gtime;
#X connect 0 0 21 0;
#X connect 2 0 4 0;
#X connect 2 0 5 1;
#X connect 3 0 5 0;
#X connect 3 1 15 0;
#X connect 4 0 3 0;
#X connect 5 0 6 0;
#X connect 6 0 13 0;
#X connect 7 0 3 0;
#X connect 8 0 12 0;
#X connect 10 0 25 0;
#X connect 11 0 8 0;
#X connect 13 0 12 0;
#X connect 14 0 16 0;
#X connect 15 0 14 0;
#X connect 17 0 3 0;
#X connect 18 0 19 0;
#X connect 19 0 3 0;
#X connect 20 0 19 0;
#X connect 20 0 18 0;
#X connect 21 0 3 0;
#X connect 22 0 17 0;
#X connect 23 0 2 0;
#X connect 24 0 23 0;
#X connect 25 0 7 0;
#X connect 25 1 2 0;
#X connect 26 0 2 0;
#X coords 0 -1 1 1 320 75 2 50 20;
#X restore 426 430 pd my_grainerEnvelopeTable;
#N canvas 251 280 1025 486 my_grainerEnvelopeTable 0;
#X obj 313 41 bng 15 250 50 0 reset-PAN-deg all-reset RESET 17 7 0
10 -258113 -1 -1;
#X text 310 57 Time ms;
#X obj 312 74 nbx 5 18 -1e+37 1e+37 0 0 empty empty empty 0 -8 0 10
-262144 -1 -1 20000 256;
#X obj 55 37 envgen 250 50 1 0  ;
#X msg 372 115 duration \$1;
#X obj 186 166 pack \$1 \$2;
#X obj 163 191 line;
#X obj 313 24 bng 15 250 50 0 empty empty RUN 17 7 0 10 -4034 -1 -1
;
#X msg 292 200 0;
#X obj 371 -4 r on-off-AMP-0-1;
#X text 53 19 PAN-deg;
#X obj 292 173 r reset-PAN-deg;
#X obj 163 216 maxlib/scale 0 1 0 90;
#X obj 163 241 s PAN-deg;
#X obj 16 200 list trim;
#X obj 16 171 list prepend set add;
#X obj 37 249 s D-PANdeg;
#X msg 9 78 dump;
#X obj 195 -22 t b b;
#X msg 245 -3 1 20000 1;
#X obj 245 -50 r once;
#X msg 662 176 0 1;
#X obj 9 0 r savepandeg;
#X msg 592 60 5000;
#X obj 592 28 r lb11;
#X obj 410 37 t b b;
#X obj 459 47 r Gtime;
#X connect 0 0 21 0;
#X connect 2 0 4 0;
#X connect 2 0 5 1;
#X connect 3 0 5 0;
#X connect 3 1 15 0;
#X connect 4 0 3 0;
#X connect 5 0 6 0;
#X connect 6 0 12 0;
#X connect 7 0 3 0;
#X connect 8 0 13 0;
#X connect 9 0 25 0;
#X connect 11 0 8 0;
#X connect 12 0 13 0;
#X connect 14 0 16 0;
#X connect 15 0 14 0;
#X connect 17 0 3 0;
#X connect 18 0 19 0;
#X connect 19 0 3 0;
#X connect 20 0 19 0;
#X connect 20 0 18 0;
#X connect 21 0 3 0;
#X connect 22 0 17 0;
#X connect 23 0 2 0;
#X connect 24 0 23 0;
#X connect 25 0 7 0;
#X connect 25 1 2 0;
#X connect 26 0 2 0;
#X coords 0 -1 1 1 320 75 2 50 20;
#X restore 102 509 pd my_grainerEnvelopeTable;
#N canvas 251 280 1025 486 my_grainerEnvelopeTable 0;
#X obj 313 43 bng 15 250 50 0 reset-AMP-dev all-reset RESET 17 7 0
10 -258113 -1 -1;
#X text 310 58 Time ms;
#X obj 311 73 nbx 5 18 -1e+37 1e+37 0 0 empty empty empty 0 -8 0 10
-262144 -1 -1 20000 256;
#X obj 55 37 envgen 250 50 1 0  ;
#X msg 372 115 duration \$1;
#X obj 186 166 pack \$1 \$2;
#X obj 163 191 line;
#X obj 313 25 bng 15 250 50 0 empty empty RUN 17 7 0 10 -4034 -1 -1
;
#X msg 292 200 0;
#X text 53 19 PAN-dev;
#X obj 371 -4 r on-off-PAN-dev;
#X obj 292 173 r reset-PAN-dev;
#X obj 163 242 maxlib/scale 0 1 0 45;
#X obj 163 282 s PAN-dev;
#X obj 17 235 list trim;
#X obj 17 206 list prepend set add;
#X obj 38 284 s D-PANdev;
#X msg 9 73 dump;
#X obj 205 -28 t b b;
#X msg 255 -9 0 9920 1 10080 0;
#X obj 255 -56 r doce;
#X msg 672 186 0 1;
#X obj 4 32 r savepandev;
#X msg 602 70 5000;
#X obj 602 38 r lb12;
#X obj 409 41 t b b;
#X obj 450 46 r Gtime;
#X connect 0 0 21 0;
#X connect 2 0 4 0;
#X connect 2 0 5 1;
#X connect 3 0 5 0;
#X connect 3 1 15 0;
#X connect 4 0 3 0;
#X connect 5 0 6 0;
#X connect 6 0 12 0;
#X connect 7 0 3 0;
#X connect 8 0 13 0;
#X connect 10 0 7 0;
#X connect 10 0 25 0;
#X connect 11 0 8 0;
#X connect 12 0 13 0;
#X connect 14 0 16 0;
#X connect 15 0 14 0;
#X connect 17 0 3 0;
#X connect 18 0 19 0;
#X connect 19 0 3 0;
#X connect 20 0 19 0;
#X connect 20 0 18 0;
#X connect 21 0 3 0;
#X connect 22 0 17 0;
#X connect 23 0 2 0;
#X connect 24 0 23 0;
#X connect 25 0 7 0;
#X connect 25 1 2 0;
#X connect 26 0 2 0;
#X coords 0 -1 1 1 320 75 2 50 20;
#X restore 426 509 pd my_grainerEnvelopeTable;
#X obj 888 67 inlet;
#X obj 1004 67 inlet;
#X text 103 100 LOAD AND SAVE AUTOMATIZATION;
#X obj 62 -28 loadbang;
#X obj 62 -5 t b b b b b b b b b b b b;
#X obj -54 43 s lb1;
#X obj -16 43 s lb2;
#X obj 21 43 s lb3;
#X obj 59 43 s lb4;
#X obj 100 43 s lb5;
#X obj 138 43 s lb6;
#X obj 175 43 s lb7;
#X obj 213 43 s lb8;
#X obj 251 43 s lb9;
#X obj 289 43 s lb10;
#X obj 326 43 s lb11;
#X obj 364 43 s lb12;
#X obj 578 18 inlet generalTime;
#X obj 578 52 s Gtime;
#X connect 13 0 1 0;
#X connect 14 0 1 1;
#X connect 16 0 17 0;
#X connect 17 0 18 0;
#X connect 17 1 19 0;
#X connect 17 2 20 0;
#X connect 17 3 21 0;
#X connect 17 4 22 0;
#X connect 17 5 23 0;
#X connect 17 6 24 0;
#X connect 17 7 25 0;
#X connect 17 8 26 0;
#X connect 17 9 27 0;
#X connect 17 10 28 0;
#X connect 17 11 29 0;
#X connect 30 0 31 0;
#X coords 0 -1 1 1 650 490 2 100 100;
#X restore -21 53 pd DINAMIC CONTROLS;
#N canvas 186 127 677 584 SAVE-LOAD-DINAMICS 0;
#X obj 49 333 bng 50 250 50 0 empty send_save SAVE 0 -10 0 10 -260097
-1 -1;
#N canvas 90 22 1127 710 SAVE 0;
#X msg 128 653 clear;
#X msg 556 457 set write \$1;
#X msg 556 489 write diente;
#X obj 93 24 inlet;
#N canvas 1169 98 450 300 ARCHIVOS 0;
#X restore 1010 109 pd ARCHIVOS;
#N canvas 200 22 1366 709 VALORES-INICIALES............... 0;
#X obj 1206 370 r I-gapsec;
#X obj 1007 393 r I-sizesec;
#X obj 802 391 r I-incnor;
#X obj 589 391 r I-starini;
#X obj 399 388 r I-amp01;
#X obj 208 375 r I-pandeg;
#X obj 1108 390 r I-gapdev;
#X obj 902 395 r I-sizedev;
#X obj 693 387 r I-incdev;
#X obj 480 389 r I-startdev;
#X obj 295 385 r I-ampdev;
#X obj 118 373 r I-pandev;
#X obj 1177 315 inlet;
#X obj 1081 316 inlet;
#X obj 976 318 inlet;
#X obj 874 318 inlet;
#X obj 763 314 inlet;
#X obj 662 308 inlet;
#X obj 555 309 inlet;
#X obj 448 306 inlet;
#X obj 350 306 inlet;
#X obj 260 301 inlet;
#X obj 170 300 inlet;
#X obj 69 295 inlet;
#X obj 94 535 outlet;
#X obj 1840 382 r env-radioizq;
#X obj 1303 383 r env-slideizq;
#X obj 1583 383 r env-slidecen;
#X obj 1440 382 r env-slideder;
#X obj 1714 379 r env-radioder;
#X obj 1277 311 inlet;
#X obj 1413 310 inlet;
#X obj 1684 309 inlet;
#X obj 1553 305 inlet;
#X obj 1806 311 inlet;
#X msg 94 505 add 0;
#X obj 57 406 t b b;
#X obj 207 542 outlet;
#X msg 207 512 add 90;
#X obj 170 413 t b b;
#X obj 323 545 outlet;
#X msg 323 515 add 0;
#X obj 286 416 t b b;
#X obj 419 546 outlet;
#X msg 419 516 add 0.001;
#X obj 382 417 t b b;
#X obj 513 546 outlet;
#X msg 513 516 add 0;
#X obj 476 417 t b b;
#X obj 603 551 outlet;
#X msg 603 521 add 0;
#X obj 566 422 t b b;
#X obj 705 545 outlet;
#X msg 705 515 add 0;
#X obj 668 416 t b b;
#X obj 795 540 outlet;
#X msg 795 510 add 1.95;
#X obj 758 411 t b b;
#X obj 909 547 outlet;
#X msg 909 517 add 0;
#X obj 872 418 t b b;
#X obj 1010 544 outlet;
#X msg 1010 514 add 1;
#X obj 982 414 t b b;
#X obj 1112 542 outlet;
#X msg 1112 512 add 0;
#X obj 1075 413 t b b;
#X obj 1215 543 outlet;
#X msg 1215 513 add 0.0999899;
#X obj 1178 414 t b b;
#X obj 1307 541 outlet;
#X msg 1307 511 add 1.33299;
#X obj 1270 412 t b b;
#X obj 1448 543 outlet;
#X msg 1448 513 add 1.33299;
#X obj 1411 414 t b b;
#X obj 1583 528 outlet;
#X msg 1583 498 add 58.5246;
#X obj 1546 399 t b b;
#X obj 1722 529 outlet;
#X msg 1722 499 add 1;
#X obj 1685 400 t b b;
#X obj 1838 537 outlet;
#X msg 1838 507 add 1;
#X obj 1801 408 t b b;
#X msg 1838 457 set add \$1;
#X obj 1838 429 float;
#X obj 1722 421 float;
#X msg 1722 449 set add \$1;
#X obj 1583 420 float;
#X msg 1583 448 set add \$1;
#X obj 1448 435 float;
#X msg 1448 463 set add \$1;
#X obj 1307 433 float;
#X msg 1307 461 set add \$1;
#X obj 1215 435 float;
#X msg 1215 463 set add \$1;
#X obj 1112 434 float;
#X msg 1112 462 set add \$1;
#X obj 1010 436 float;
#X msg 1010 464 set add \$1;
#X obj 909 439 float;
#X msg 909 467 set add \$1;
#X obj 795 432 float;
#X msg 795 460 set add \$1;
#X obj 705 437 float;
#X msg 705 465 set add \$1;
#X obj 603 443 float;
#X msg 603 471 set add \$1;
#X obj 513 438 float;
#X msg 513 466 set add \$1;
#X obj 419 438 float;
#X msg 419 466 set add \$1;
#X obj 323 437 float;
#X msg 323 465 set add \$1;
#X obj 207 434 float;
#X msg 207 462 set add \$1;
#X obj 94 427 float;
#X msg 94 455 set add \$1;
#X connect 0 0 95 1;
#X connect 1 0 99 1;
#X connect 2 0 103 1;
#X connect 3 0 107 1;
#X connect 4 0 111 1;
#X connect 5 0 115 1;
#X connect 6 0 97 1;
#X connect 7 0 101 1;
#X connect 8 0 105 1;
#X connect 9 0 109 1;
#X connect 10 0 113 1;
#X connect 11 0 117 1;
#X connect 12 0 69 0;
#X connect 13 0 66 0;
#X connect 14 0 63 0;
#X connect 15 0 60 0;
#X connect 16 0 57 0;
#X connect 17 0 54 0;
#X connect 18 0 51 0;
#X connect 19 0 48 0;
#X connect 20 0 45 0;
#X connect 21 0 42 0;
#X connect 22 0 39 0;
#X connect 23 0 36 0;
#X connect 25 0 86 1;
#X connect 26 0 93 1;
#X connect 27 0 89 1;
#X connect 28 0 91 1;
#X connect 29 0 87 1;
#X connect 30 0 72 0;
#X connect 31 0 75 0;
#X connect 32 0 81 0;
#X connect 33 0 78 0;
#X connect 34 0 84 0;
#X connect 35 0 24 0;
#X connect 36 0 35 0;
#X connect 36 1 117 0;
#X connect 38 0 37 0;
#X connect 39 0 38 0;
#X connect 39 1 115 0;
#X connect 41 0 40 0;
#X connect 42 0 41 0;
#X connect 42 1 113 0;
#X connect 44 0 43 0;
#X connect 45 0 44 0;
#X connect 45 1 111 0;
#X connect 47 0 46 0;
#X connect 48 0 47 0;
#X connect 48 1 109 0;
#X connect 50 0 49 0;
#X connect 51 0 50 0;
#X connect 51 1 107 0;
#X connect 53 0 52 0;
#X connect 54 0 53 0;
#X connect 54 1 105 0;
#X connect 56 0 55 0;
#X connect 57 0 56 0;
#X connect 57 1 103 0;
#X connect 59 0 58 0;
#X connect 60 0 59 0;
#X connect 60 1 101 0;
#X connect 62 0 61 0;
#X connect 63 0 62 0;
#X connect 63 1 99 0;
#X connect 65 0 64 0;
#X connect 66 0 65 0;
#X connect 66 1 97 0;
#X connect 68 0 67 0;
#X connect 69 0 68 0;
#X connect 69 1 95 0;
#X connect 71 0 70 0;
#X connect 72 0 71 0;
#X connect 72 1 93 0;
#X connect 74 0 73 0;
#X connect 75 0 74 0;
#X connect 75 1 91 0;
#X connect 77 0 76 0;
#X connect 78 0 77 0;
#X connect 78 1 89 0;
#X connect 80 0 79 0;
#X connect 81 0 80 0;
#X connect 81 1 87 0;
#X connect 83 0 82 0;
#X connect 84 0 83 0;
#X connect 84 1 86 0;
#X connect 85 0 83 0;
#X connect 86 0 85 0;
#X connect 87 0 88 0;
#X connect 88 0 80 0;
#X connect 89 0 90 0;
#X connect 90 0 77 0;
#X connect 91 0 92 0;
#X connect 92 0 74 0;
#X connect 93 0 94 0;
#X connect 94 0 71 0;
#X connect 95 0 96 0;
#X connect 96 0 68 0;
#X connect 97 0 98 0;
#X connect 98 0 65 0;
#X connect 99 0 100 0;
#X connect 100 0 62 0;
#X connect 101 0 102 0;
#X connect 102 0 59 0;
#X connect 103 0 104 0;
#X connect 104 0 56 0;
#X connect 105 0 106 0;
#X connect 106 0 53 0;
#X connect 107 0 108 0;
#X connect 108 0 50 0;
#X connect 109 0 110 0;
#X connect 110 0 47 0;
#X connect 111 0 112 0;
#X connect 112 0 44 0;
#X connect 113 0 114 0;
#X connect 114 0 41 0;
#X connect 115 0 116 0;
#X connect 116 0 38 0;
#X connect 117 0 118 0;
#X connect 118 0 35 0;
#X restore 118 236 pd VALORES-INICIALES...............;
#N canvas 274 306 1366 513 SET-VALORES-DINAMICOS............... 0;
#X obj 1177 315 inlet;
#X obj 1081 316 inlet;
#X obj 976 318 inlet;
#X obj 874 318 inlet;
#X obj 763 314 inlet;
#X obj 662 308 inlet;
#X obj 555 309 inlet;
#X obj 448 306 inlet;
#X obj 350 306 inlet;
#X obj 260 301 inlet;
#X obj 170 300 inlet;
#X obj 69 295 inlet;
#X obj 1176 350 s savegapsec;
#X obj 1081 347 s savegapdev;
#X obj 974 348 s savesizesec;
#X obj 874 345 s savesizedev;
#X obj 763 340 s saveincnor;
#X obj 661 342 s saveincdev;
#X obj 558 341 s savestartini;
#X obj 447 342 s savestartdev;
#X obj 346 341 s saveamp01;
#X obj 257 341 s saveampdev;
#X obj 166 339 s savepandeg;
#X obj 69 340 s savepandev;
#X connect 0 0 12 0;
#X connect 1 0 13 0;
#X connect 2 0 14 0;
#X connect 3 0 15 0;
#X connect 4 0 16 0;
#X connect 5 0 17 0;
#X connect 6 0 18 0;
#X connect 7 0 19 0;
#X connect 8 0 20 0;
#X connect 9 0 21 0;
#X connect 10 0 22 0;
#X connect 11 0 23 0;
#X restore 593 239 pd SET-VALORES-DINAMICOS...............;
#N canvas 131 22 1078 530 PUT-VALORES-DINAMICOS............... 0;
#X obj 786 290 inlet;
#X obj 705 296 inlet;
#X obj 624 293 inlet;
#X obj 551 295 inlet;
#X obj 476 295 inlet;
#X obj 377 294 inlet;
#X obj 306 287 inlet;
#X obj 236 293 inlet;
#X obj 153 293 inlet;
#X obj 69 295 inlet;
#X obj 794 465 outlet;
#X obj 706 467 outlet;
#X obj 625 466 outlet;
#X obj 561 466 outlet;
#X obj 471 464 outlet;
#X obj 383 466 outlet;
#X obj 310 466 outlet;
#X obj 237 470 outlet;
#X obj 158 468 outlet;
#X obj 88 467 outlet;
#X obj 945 385 r D-GAPsec;
#X obj 870 380 r D-GAPdev;
#N canvas 552 312 450 300 gapsec 0;
#X msg 36 115 add 0.1 30000 0.1;
#X obj 35 75 inlet;
#X obj 37 167 outlet;
#X connect 0 0 2 0;
#X connect 1 0 0 0;
#X restore 945 416 pd gapsec;
#N canvas 552 312 450 300 gapdev 0;
#X msg 36 115 add 0 30000 0;
#X obj 35 75 inlet;
#X obj 37 167 outlet;
#X connect 0 0 2 0;
#X connect 1 0 0 0;
#X restore 870 412 pd gapdev;
#X obj 789 380 r D-SIZEsec;
#X obj 703 379 r D-SIZEdev;
#X obj 626 378 r D-INCnor;
#X obj 553 377 r D-INCdev;
#X obj 467 376 r D-STARTini;
#X obj 380 374 r D-STARTdev;
#X obj 311 374 r D-AMP01;
#X obj 238 375 r D-AMPdev;
#X obj 87 375 r D-PANdev;
#X obj 157 375 r D-PANdeg;
#N canvas 552 312 450 300 sizesec 0;
#X msg 36 115 add 0 20000 1;
#X obj 35 75 inlet;
#X obj 37 167 outlet;
#X connect 0 0 2 0;
#X connect 1 0 0 0;
#X restore 790 411 pd sizesec;
#N canvas 552 312 450 300 sizedev 0;
#X msg 36 115 add 0 20000 0;
#X obj 35 75 inlet;
#X obj 37 167 outlet;
#X connect 0 0 2 0;
#X connect 1 0 0 0;
#X restore 704 411 pd sizedev;
#N canvas 552 312 450 300 incnor 0;
#X msg 36 115 add 0 960 1 1040 0 2480 1 1840 0 2720 1 3520 0 3040 1
2720 0 1680 0.98;
#X obj 35 75 inlet;
#X obj 37 167 outlet;
#X connect 0 0 2 0;
#X connect 1 0 0 0;
#X restore 627 408 pd incnor;
#N canvas 552 312 450 300 incdev 0;
#X msg 36 115 add 0 20000 0;
#X obj 35 75 inlet;
#X obj 37 167 outlet;
#X connect 0 0 2 0;
#X connect 1 0 0 0;
#X restore 558 408 pd incdev;
#N canvas 552 312 450 300 startini 0;
#X msg 36 115 add 0 20000 0;
#X obj 35 75 inlet;
#X obj 37 167 outlet;
#X connect 0 0 2 0;
#X connect 1 0 0 0;
#X restore 471 406 pd startini;
#N canvas 552 312 450 300 startdev 0;
#X msg 36 115 add 0 20000 0;
#X obj 35 75 inlet;
#X obj 37 167 outlet;
#X connect 0 0 2 0;
#X connect 1 0 0 0;
#X restore 379 405 pd startdev;
#N canvas 552 312 450 300 amp01 0;
#X msg 36 115 add 0.24 19280 0.18 720 0;
#X obj 35 75 inlet;
#X obj 37 167 outlet;
#X connect 0 0 2 0;
#X connect 1 0 0 0;
#X restore 310 405 pd amp01;
#N canvas 552 312 450 300 ampdev 0;
#X msg 36 115 add 0 20000 0;
#X obj 35 75 inlet;
#X obj 37 167 outlet;
#X connect 0 0 2 0;
#X connect 1 0 0 0;
#X restore 237 407 pd ampdev;
#N canvas 552 312 450 300 pandeg 0;
#X msg 36 115 add 1 20000 1;
#X obj 35 75 inlet;
#X obj 37 167 outlet;
#X connect 0 0 2 0;
#X connect 1 0 0 0;
#X restore 157 406 pd pandeg;
#N canvas 552 312 450 300 pandev 0;
#X msg 36 115 add 0 9920 1 10080 0;
#X obj 35 75 inlet;
#X obj 37 167 outlet;
#X connect 0 0 2 0;
#X connect 1 0 0 0;
#X restore 87 407 pd pandev;
#X obj 952 290 inlet;
#X obj 871 296 inlet;
#X obj 953 464 outlet;
#X obj 865 466 outlet;
#X connect 0 0 34 0;
#X connect 1 0 35 0;
#X connect 2 0 36 0;
#X connect 3 0 37 0;
#X connect 4 0 38 0;
#X connect 5 0 39 0;
#X connect 6 0 40 0;
#X connect 7 0 41 0;
#X connect 8 0 42 0;
#X connect 9 0 43 0;
#X connect 20 0 22 0;
#X connect 21 0 23 0;
#X connect 22 0 46 0;
#X connect 23 0 47 0;
#X connect 24 0 34 0;
#X connect 25 0 35 0;
#X connect 26 0 36 0;
#X connect 27 0 37 0;
#X connect 28 0 38 0;
#X connect 29 0 39 0;
#X connect 30 0 40 0;
#X connect 31 0 41 0;
#X connect 32 0 43 0;
#X connect 33 0 42 0;
#X connect 34 0 10 0;
#X connect 35 0 11 0;
#X connect 36 0 12 0;
#X connect 37 0 13 0;
#X connect 38 0 14 0;
#X connect 39 0 15 0;
#X connect 40 0 16 0;
#X connect 41 0 17 0;
#X connect 42 0 18 0;
#X connect 43 0 19 0;
#X connect 44 0 22 0;
#X connect 45 0 23 0;
#X restore 343 236 pd PUT-VALORES-DINAMICOS...............;
#X obj 253 670 textfile;
#X obj 534 414 r nombre_save;
#N canvas 962 374 450 300 time 0;
#X obj 70 82 float;
#X obj 70 130 outlet;
#X obj 70 32 inlet;
#X obj 97 58 r GeneralTime;
#X connect 0 0 1 0;
#X connect 2 0 0 0;
#X connect 3 0 0 1;
#X restore 706 594 pd time;
#X obj 216 113 t b b b b b b b b b b b b b b b b b b b b b b b b b
b b b b b b b b b b b b b b b b b b b;
#X msg 519 641 add \$1;
#N canvas 468 571 928 391 EnvelopeGrain 0;
#X obj 85 115 float;
#X obj 85 163 outlet;
#X obj 85 65 inlet;
#X obj 112 88 r env-radioizq;
#X obj 385 89 r env-slideizq;
#X obj 530 93 r env-slidecen;
#X obj 658 89 r env-slideder;
#X obj 252 65 r env-radioder;
#X obj 358 115 float;
#X obj 358 163 outlet;
#X obj 358 65 inlet;
#X obj 212 114 float;
#X obj 212 162 outlet;
#X obj 212 64 inlet;
#X obj 499 119 float;
#X obj 499 167 outlet;
#X obj 499 69 inlet;
#X obj 630 116 float;
#X obj 630 164 outlet;
#X obj 630 66 inlet;
#X msg 85 139 add \$1;
#X msg 212 139 add \$1;
#X msg 358 138 add \$1;
#X msg 499 143 add \$1;
#X msg 631 142 add \$1;
#X floatatom 145 132 5 0 0 0 - - -;
#X floatatom 280 134 5 0 0 0 - - -;
#X floatatom 414 135 5 0 0 0 - - -;
#X floatatom 552 134 5 0 0 0 - - -;
#X floatatom 696 139 5 0 0 0 - - -;
#X connect 0 0 20 0;
#X connect 2 0 0 0;
#X connect 3 0 0 1;
#X connect 3 0 25 0;
#X connect 4 0 8 1;
#X connect 4 0 27 0;
#X connect 5 0 14 1;
#X connect 5 0 28 0;
#X connect 6 0 17 1;
#X connect 6 0 29 0;
#X connect 7 0 11 1;
#X connect 7 0 26 0;
#X connect 8 0 22 0;
#X connect 10 0 8 0;
#X connect 11 0 21 0;
#X connect 13 0 11 0;
#X connect 14 0 23 0;
#X connect 16 0 14 0;
#X connect 17 0 24 0;
#X connect 19 0 17 0;
#X connect 20 0 1 0;
#X connect 21 0 12 0;
#X connect 22 0 9 0;
#X connect 23 0 15 0;
#X connect 24 0 18 0;
#X restore 595 594 pd EnvelopeGrain;
#X obj 565 548 t b b b b b b b;
#X connect 0 0 8 0;
#X connect 1 0 2 0;
#X connect 2 0 8 0;
#X connect 3 0 11 0;
#X connect 5 0 8 0;
#X connect 5 1 8 0;
#X connect 5 2 8 0;
#X connect 5 3 8 0;
#X connect 5 4 8 0;
#X connect 5 5 8 0;
#X connect 5 6 8 0;
#X connect 5 7 8 0;
#X connect 5 8 8 0;
#X connect 5 9 8 0;
#X connect 5 10 8 0;
#X connect 5 11 8 0;
#X connect 5 12 8 0;
#X connect 5 13 8 0;
#X connect 5 14 8 0;
#X connect 5 15 8 0;
#X connect 5 16 8 0;
#X connect 7 0 8 0;
#X connect 7 1 8 0;
#X connect 7 2 8 0;
#X connect 7 3 8 0;
#X connect 7 4 8 0;
#X connect 7 5 8 0;
#X connect 7 6 8 0;
#X connect 7 7 8 0;
#X connect 7 8 8 0;
#X connect 7 9 8 0;
#X connect 7 10 8 0;
#X connect 7 11 8 0;
#X connect 9 0 1 0;
#X connect 10 0 12 0;
#X connect 11 0 14 0;
#X connect 11 1 5 0;
#X connect 11 2 5 1;
#X connect 11 3 5 2;
#X connect 11 4 5 3;
#X connect 11 5 5 4;
#X connect 11 6 5 5;
#X connect 11 7 5 6;
#X connect 11 8 5 7;
#X connect 11 9 5 8;
#X connect 11 10 5 9;
#X connect 11 11 5 10;
#X connect 11 12 5 11;
#X connect 11 13 5 12;
#X connect 11 14 5 13;
#X connect 11 15 5 14;
#X connect 11 16 5 15;
#X connect 11 17 5 16;
#X connect 11 18 7 0;
#X connect 11 19 7 1;
#X connect 11 20 7 2;
#X connect 11 21 7 3;
#X connect 11 22 7 4;
#X connect 11 23 7 5;
#X connect 11 24 7 6;
#X connect 11 25 7 7;
#X connect 11 26 7 8;
#X connect 11 27 7 9;
#X connect 11 28 7 10;
#X connect 11 29 7 11;
#X connect 11 30 6 0;
#X connect 11 31 6 1;
#X connect 11 32 6 2;
#X connect 11 33 6 3;
#X connect 11 34 6 4;
#X connect 11 35 6 5;
#X connect 11 36 6 6;
#X connect 11 37 6 7;
#X connect 11 38 6 8;
#X connect 11 39 6 9;
#X connect 11 40 6 10;
#X connect 11 41 6 11;
#X connect 11 43 0 0;
#X connect 12 0 8 0;
#X connect 13 0 8 0;
#X connect 13 1 8 0;
#X connect 13 2 8 0;
#X connect 13 3 8 0;
#X connect 13 4 8 0;
#X connect 14 0 2 0;
#X connect 14 1 13 4;
#X connect 14 2 13 3;
#X connect 14 3 13 2;
#X connect 14 4 13 1;
#X connect 14 5 13 0;
#X connect 14 6 10 0;
#X restore 50 416 pd SAVE;
#X obj 234 335 bng 50 250 50 0 empty empty LOAD 0 -10 0 10 -4034 -1
-1;
#N canvas 546 22 779 665 LOAD 0;
#X obj 294 313 textfile;
#X msg 213 300 print;
#X msg 245 230 rewind;
#X msg 245 256 bang;
#X obj 199 355 print list;
#X obj 308 374 list trim;
#X msg 319 224 set read \$1;
#X msg 333 254 read /Users/esteban/Desktop/Compile pd externals/GRAINER_DINAMICS/EJEMPLO3
;
#X obj 282 126 t b b b;
#X floatatom 165 212 5 0 0 0 - - -;
#X obj 71 212 onebang;
#X obj 68 247 tgl 15 0 empty empty empty 17 7 0 10 -262144 -1 -1 0
1;
#X obj 106 177 bng 15 250 50 0 empty empty empty 17 7 0 10 -262144
-1 -1;
#X floatatom 102 446 5 0 0 0 - - -;
#X obj 306 349 list prepend set set;
#X obj 123 149 loadbang;
#X obj 131 199 bng 15 250 50 0 empty empty empty 17 7 0 10 -262144
-1 -1;
#X obj 179 26 inlet;
#X obj 282 86 bng 15 250 50 0 empty empty empty 17 7 0 10 -262144 -1
-1;
#X obj 307 408 s send-mensaje;
#N canvas 684 197 1222 548 DINAMICS 0;
#N canvas 753 453 450 300 uno 0;
#X obj 71 118 s;
#X msg 77 77 symbol uno;
#X obj 47 23 inlet;
#X obj 208 42 inlet;
#X msg 210 81 set 1.33299;
#X obj 38 106 bng 15 250 50 0 empty empty empty 17 7 0 10 -262144 -1
-1;
#X obj 48 45 t b b;
#X connect 1 0 0 1;
#X connect 2 0 6 0;
#X connect 3 0 4 0;
#X connect 4 0 0 0;
#X connect 6 0 5 0;
#X connect 6 0 4 0;
#X connect 6 1 1 0;
#X restore 94 231 pd uno;
#N canvas 699 325 450 300 dos 0;
#X obj 71 118 s;
#X obj 48 45 t b b;
#X obj 47 23 inlet;
#X obj 208 42 inlet;
#X msg 210 81 set 1.33299;
#X msg 77 77 symbol dos;
#X connect 1 0 4 0;
#X connect 1 1 5 0;
#X connect 2 0 1 0;
#X connect 3 0 4 0;
#X connect 4 0 0 0;
#X connect 5 0 0 1;
#X restore 173 232 pd dos;
#N canvas 699 325 450 300 tres 0;
#X obj 71 118 s;
#X obj 48 45 t b b;
#X obj 47 23 inlet;
#X obj 208 42 inlet;
#X msg 210 81 set 1.33299;
#X msg 77 77 symbol tres;
#X connect 1 0 4 0;
#X connect 1 1 5 0;
#X connect 2 0 1 0;
#X connect 3 0 4 0;
#X connect 4 0 0 0;
#X connect 5 0 0 1;
#X restore 254 234 pd tres;
#N canvas 699 325 450 300 cuatro 0;
#X obj 71 118 s;
#X obj 48 45 t b b;
#X obj 47 23 inlet;
#X obj 208 42 inlet;
#X msg 210 81 set 1.33299;
#X msg 77 77 symbol cuatro;
#X connect 1 0 4 0;
#X connect 1 1 5 0;
#X connect 2 0 1 0;
#X connect 3 0 4 0;
#X connect 4 0 0 0;
#X connect 5 0 0 1;
#X restore 333 235 pd cuatro;
#N canvas 699 325 450 300 cinco 0;
#X obj 71 118 s;
#X obj 48 45 t b b;
#X obj 47 23 inlet;
#X obj 208 42 inlet;
#X msg 210 81 set 1.33299;
#X msg 77 77 symbol cinco;
#X connect 1 0 4 0;
#X connect 1 1 5 0;
#X connect 2 0 1 0;
#X connect 3 0 4 0;
#X connect 4 0 0 0;
#X connect 5 0 0 1;
#X restore 414 236 pd cinco;
#N canvas 699 325 450 300 seis 0;
#X obj 71 118 s;
#X obj 48 45 t b b;
#X obj 47 23 inlet;
#X obj 208 42 inlet;
#X msg 210 81 set 1.33299;
#X msg 77 77 symbol seis;
#X connect 1 0 4 0;
#X connect 1 1 5 0;
#X connect 2 0 1 0;
#X connect 3 0 4 0;
#X connect 4 0 0 0;
#X connect 5 0 0 1;
#X restore 493 237 pd seis;
#N canvas 699 325 450 300 siete 0;
#X obj 71 118 s;
#X obj 48 45 t b b;
#X obj 47 23 inlet;
#X obj 208 42 inlet;
#X msg 210 81 set 1.33299;
#X msg 77 77 symbol siete;
#X connect 1 0 4 0;
#X connect 1 1 5 0;
#X connect 2 0 1 0;
#X connect 3 0 4 0;
#X connect 4 0 0 0;
#X connect 5 0 0 1;
#X restore 574 239 pd siete;
#N canvas 699 325 450 300 ocho 0;
#X obj 71 118 s;
#X obj 48 45 t b b;
#X obj 47 23 inlet;
#X obj 208 42 inlet;
#X msg 210 81 set 1.33299;
#X msg 77 77 symbol ocho;
#X connect 1 0 4 0;
#X connect 1 1 5 0;
#X connect 2 0 1 0;
#X connect 3 0 4 0;
#X connect 4 0 0 0;
#X connect 5 0 0 1;
#X restore 653 240 pd ocho;
#N canvas 699 325 450 300 nueve 0;
#X obj 71 118 s;
#X obj 48 45 t b b;
#X obj 47 23 inlet;
#X obj 208 42 inlet;
#X msg 210 81 set 1.33299;
#X msg 77 77 symbol nueve;
#X connect 1 0 4 0;
#X connect 1 1 5 0;
#X connect 2 0 1 0;
#X connect 3 0 4 0;
#X connect 4 0 0 0;
#X connect 5 0 0 1;
#X restore 734 241 pd nueve;
#N canvas 699 325 450 300 diez 0;
#X obj 71 118 s;
#X obj 48 45 t b b;
#X obj 47 23 inlet;
#X obj 208 42 inlet;
#X msg 210 81 set 1.33299;
#X msg 77 77 symbol diez;
#X connect 1 0 4 0;
#X connect 1 1 5 0;
#X connect 2 0 1 0;
#X connect 3 0 4 0;
#X connect 4 0 0 0;
#X connect 5 0 0 1;
#X restore 813 242 pd diez;
#N canvas 699 325 450 300 once 0;
#X obj 71 118 s;
#X obj 48 45 t b b;
#X obj 47 23 inlet;
#X obj 208 42 inlet;
#X msg 210 81 set 1.33299;
#X msg 77 77 symbol once;
#X connect 1 0 4 0;
#X connect 1 1 5 0;
#X connect 2 0 1 0;
#X connect 3 0 4 0;
#X connect 4 0 0 0;
#X connect 5 0 0 1;
#X restore 894 244 pd once;
#N canvas 699 325 450 300 doce 0;
#X obj 71 118 s;
#X obj 48 45 t b b;
#X obj 47 23 inlet;
#X obj 208 42 inlet;
#X msg 210 81 set 1.33299;
#X msg 77 77 symbol doce;
#X connect 1 0 4 0;
#X connect 1 1 5 0;
#X connect 2 0 1 0;
#X connect 3 0 4 0;
#X connect 4 0 0 0;
#X connect 5 0 0 1;
#X restore 973 245 pd doce;
#X obj 127 203 r send-mensaje;
#X obj 206 204 r send-mensaje;
#X obj 287 206 r send-mensaje;
#X obj 366 207 r send-mensaje;
#X obj 447 208 r send-mensaje;
#X obj 526 209 r send-mensaje;
#X obj 607 211 r send-mensaje;
#X obj 686 212 r send-mensaje;
#X obj 767 213 r send-mensaje;
#X obj 846 214 r send-mensaje;
#X obj 927 216 r send-mensaje;
#X obj 1006 217 r send-mensaje;
#X obj 91 111 inlet;
#X obj 174 110 inlet;
#X obj 250 110 inlet;
#X obj 333 109 inlet;
#X obj 411 109 inlet;
#X obj 494 108 inlet;
#X obj 570 108 inlet;
#X obj 653 107 inlet;
#X obj 740 109 inlet;
#X obj 816 108 inlet;
#X obj 966 112 inlet;
#X obj 897 108 inlet;
#X connect 12 0 0 1;
#X connect 13 0 1 1;
#X connect 14 0 2 1;
#X connect 15 0 3 1;
#X connect 16 0 4 1;
#X connect 17 0 5 1;
#X connect 18 0 6 1;
#X connect 19 0 7 1;
#X connect 20 0 8 1;
#X connect 21 0 9 1;
#X connect 22 0 10 1;
#X connect 23 0 11 1;
#X connect 24 0 0 0;
#X connect 25 0 1 0;
#X connect 26 0 2 0;
#X connect 27 0 3 0;
#X connect 28 0 4 0;
#X connect 29 0 5 0;
#X connect 30 0 6 0;
#X connect 31 0 7 0;
#X connect 32 0 8 0;
#X connect 33 0 9 0;
#X connect 34 0 11 0;
#X connect 35 0 10 0;
#X restore 163 527 pd DINAMICS ...................;
#N canvas 193 112 1159 575 STATICS 0;
#X obj 215 208 r send-mensaje;
#X obj 297 216 r send-mensaje;
#X obj 376 217 r send-mensaje;
#X obj 457 218 r send-mensaje;
#X obj 536 219 r send-mensaje;
#X obj 617 221 r send-mensaje;
#X obj 696 222 r send-mensaje;
#X obj 777 223 r send-mensaje;
#X obj 856 224 r send-mensaje;
#X obj 937 226 r send-mensaje;
#X obj 1016 227 r send-mensaje;
#X obj 101 121 inlet;
#X obj 184 120 inlet;
#X obj 260 120 inlet;
#X obj 343 119 inlet;
#X obj 421 119 inlet;
#X obj 504 118 inlet;
#X obj 580 118 inlet;
#X obj 663 117 inlet;
#X obj 750 119 inlet;
#X obj 826 118 inlet;
#X obj 976 122 inlet;
#X obj 907 118 inlet;
#N canvas 699 325 450 300 trece 0;
#X obj 100 143 s;
#X obj 47 23 inlet;
#X obj 208 42 inlet;
#X msg 210 81 set 1.33299;
#X msg 211 124 0.0999899;
#X obj 48 45 t b b b;
#X msg 77 77 symbol trece;
#X connect 1 0 5 0;
#X connect 2 0 3 0;
#X connect 3 0 4 0;
#X connect 4 0 0 0;
#X connect 5 0 4 0;
#X connect 5 1 3 0;
#X connect 5 2 6 0;
#X connect 6 0 0 1;
#X restore 104 241 pd trece;
#N canvas 699 325 450 300 catorce 0;
#X obj 110 153 s;
#X obj 57 33 inlet;
#X obj 218 52 inlet;
#X msg 220 91 set 1.33299;
#X msg 221 123 0;
#X obj 58 55 t b b b;
#X msg 87 87 symbol catorce;
#X connect 1 0 5 0;
#X connect 2 0 3 0;
#X connect 3 0 4 0;
#X connect 4 0 0 0;
#X connect 5 0 4 0;
#X connect 5 1 3 0;
#X connect 5 2 6 0;
#X connect 6 0 0 1;
#X restore 183 242 pd catorce;
#N canvas 699 325 450 300 quince 0;
#X obj 120 163 s;
#X obj 67 43 inlet;
#X obj 228 62 inlet;
#X msg 230 101 set 1.33299;
#X msg 230 134 1;
#X obj 68 65 t b b b;
#X msg 97 97 symbol quince;
#X connect 1 0 5 0;
#X connect 2 0 3 0;
#X connect 3 0 4 0;
#X connect 4 0 0 0;
#X connect 5 0 4 0;
#X connect 5 1 3 0;
#X connect 5 2 6 0;
#X connect 6 0 0 1;
#X restore 264 244 pd quince;
#N canvas 699 325 450 300 dieciseis 0;
#X obj 130 173 s;
#X obj 77 53 inlet;
#X obj 238 72 inlet;
#X msg 240 111 set 1.33299;
#X msg 241 142 0;
#X obj 78 75 t b b b;
#X msg 107 107 symbol dieciseis;
#X connect 1 0 5 0;
#X connect 2 0 3 0;
#X connect 3 0 4 0;
#X connect 4 0 0 0;
#X connect 5 0 4 0;
#X connect 5 1 3 0;
#X connect 5 2 6 0;
#X connect 6 0 0 1;
#X restore 343 245 pd dieciseis;
#N canvas 699 325 450 300 diecisiete 0;
#X obj 82 143 s;
#X obj 29 23 inlet;
#X obj 190 42 inlet;
#X msg 192 81 set 1.33299;
#X msg 193 124 1.95;
#X obj 30 45 t b b b;
#X msg 59 77 symbol diecisiete;
#X connect 1 0 5 0;
#X connect 2 0 3 0;
#X connect 3 0 4 0;
#X connect 4 0 0 0;
#X connect 5 0 4 0;
#X connect 5 1 3 0;
#X connect 5 2 6 0;
#X connect 6 0 0 1;
#X restore 418 247 pd diecisiete;
#N canvas 699 325 450 300 dieciocho 0;
#X obj 82 138 s;
#X obj 29 18 inlet;
#X obj 190 37 inlet;
#X msg 192 76 set 1.33299;
#X msg 193 119 0;
#X obj 30 40 t b b b;
#X msg 59 72 symbol dieciocho;
#X connect 1 0 5 0;
#X connect 2 0 3 0;
#X connect 3 0 4 0;
#X connect 4 0 0 0;
#X connect 5 0 4 0;
#X connect 5 1 3 0;
#X connect 5 2 6 0;
#X connect 6 0 0 1;
#X restore 503 247 pd dieciocho;
#N canvas 699 325 450 300 diecinueve 0;
#X obj 91 148 s;
#X obj 38 28 inlet;
#X obj 199 47 inlet;
#X msg 201 86 set 1.33299;
#X msg 202 129 0;
#X obj 39 50 t b b b;
#X msg 68 82 symbol diecinueve;
#X connect 1 0 5 0;
#X connect 2 0 3 0;
#X connect 3 0 4 0;
#X connect 4 0 0 0;
#X connect 5 0 4 0;
#X connect 5 1 3 0;
#X connect 5 2 6 0;
#X connect 6 0 0 1;
#X restore 584 249 pd diecinueve;
#N canvas 699 325 450 300 veinte 0;
#X obj 98 157 s;
#X obj 45 37 inlet;
#X obj 206 56 inlet;
#X msg 208 95 set 1.33299;
#X msg 209 138 0;
#X obj 46 59 t b b b;
#X msg 75 91 symbol veinte;
#X connect 1 0 5 0;
#X connect 2 0 3 0;
#X connect 3 0 4 0;
#X connect 4 0 0 0;
#X connect 5 0 4 0;
#X connect 5 1 3 0;
#X connect 5 2 6 0;
#X connect 6 0 0 1;
#X restore 673 249 pd veinte;
#N canvas 699 325 450 300 veintiuno 0;
#X obj 94 147 s;
#X obj 41 27 inlet;
#X obj 202 46 inlet;
#X msg 204 85 set 1.33299;
#X msg 205 128 0.001;
#X obj 42 49 t b b b;
#X msg 71 81 symbol veintiuno;
#X connect 1 0 5 0;
#X connect 2 0 3 0;
#X connect 3 0 4 0;
#X connect 4 0 0 0;
#X connect 5 0 4 0;
#X connect 5 1 3 0;
#X connect 5 2 6 0;
#X connect 6 0 0 1;
#X restore 744 251 pd veintiuno;
#N canvas 699 325 450 300 veintidos 0;
#X obj 82 146 s;
#X obj 29 26 inlet;
#X obj 190 45 inlet;
#X msg 192 84 set 1.33299;
#X msg 193 127 0;
#X obj 30 48 t b b b;
#X msg 59 80 symbol veintidos;
#X connect 1 0 5 0;
#X connect 2 0 3 0;
#X connect 3 0 4 0;
#X connect 4 0 0 0;
#X connect 5 0 4 0;
#X connect 5 1 3 0;
#X connect 5 2 6 0;
#X connect 6 0 0 1;
#X restore 823 252 pd veintidos;
#N canvas 699 325 450 300 veintitres 0;
#X obj 92 167 s;
#X obj 39 47 inlet;
#X obj 200 66 inlet;
#X msg 202 105 set 1.33299;
#X msg 203 148 90;
#X obj 40 69 t b b b;
#X msg 69 101 symbol veintitres;
#X connect 1 0 5 0;
#X connect 2 0 3 0;
#X connect 3 0 4 0;
#X connect 4 0 0 0;
#X connect 5 0 4 0;
#X connect 5 1 3 0;
#X connect 5 2 6 0;
#X connect 6 0 0 1;
#X restore 904 254 pd veintitres;
#N canvas 699 325 450 300 veinticuatro 0;
#X obj 126 158 s;
#X obj 73 38 inlet;
#X obj 234 57 inlet;
#X msg 236 96 set 1.33299;
#X msg 237 139 0;
#X obj 74 60 t b b b;
#X msg 103 92 symbol veinticuatro;
#X connect 1 0 5 0;
#X connect 2 0 3 0;
#X connect 3 0 4 0;
#X connect 4 0 0 0;
#X connect 5 0 4 0;
#X connect 5 1 3 0;
#X connect 5 2 6 0;
#X connect 6 0 0 1;
#X restore 1002 256 pd veinticuatro;
#X obj 123 208 r send-mensaje;
#X connect 0 0 24 1;
#X connect 1 0 25 1;
#X connect 2 0 26 1;
#X connect 3 0 27 1;
#X connect 4 0 28 1;
#X connect 5 0 29 1;
#X connect 6 0 30 1;
#X connect 7 0 31 1;
#X connect 8 0 32 1;
#X connect 9 0 33 1;
#X connect 10 0 34 1;
#X connect 11 0 23 0;
#X connect 12 0 24 0;
#X connect 13 0 25 0;
#X connect 14 0 26 0;
#X connect 15 0 27 0;
#X connect 16 0 28 0;
#X connect 17 0 29 0;
#X connect 18 0 30 0;
#X connect 19 0 31 0;
#X connect 20 0 32 0;
#X connect 21 0 34 0;
#X connect 22 0 33 0;
#X connect 35 0 23 1;
#X restore 114 607 pd STATICS ............................;
#X obj 348 129 r nombre_load;
#X obj 372 380 bng 15 250 50 0 empty empty empty 17 7 0 10 -262144
-1 -1;
#X obj 107 586 bng 15 250 50 0 empty empty empty 17 7 0 10 -262144
-1 -1;
#X obj 126 586 bng 15 250 50 0 empty empty empty 17 7 0 10 -262144
-1 -1;
#X obj 144 585 bng 15 250 50 0 empty empty empty 17 7 0 10 -262144
-1 -1;
#X obj 163 585 bng 15 250 50 0 empty empty empty 17 7 0 10 -262144
-1 -1;
#X obj 186 585 bng 15 250 50 0 empty empty empty 17 7 0 10 -262144
-1 -1;
#X obj 205 585 bng 15 250 50 0 empty empty empty 17 7 0 10 -262144
-1 -1;
#X obj 223 584 bng 15 250 50 0 empty empty empty 17 7 0 10 -262144
-1 -1;
#X obj 242 584 bng 15 250 50 0 empty empty empty 17 7 0 10 -262144
-1 -1;
#X obj 262 584 bng 15 250 50 0 empty empty empty 17 7 0 10 -262144
-1 -1;
#X obj 281 584 bng 15 250 50 0 empty empty empty 17 7 0 10 -262144
-1 -1;
#X obj 299 583 bng 15 250 50 0 empty empty empty 17 7 0 10 -262144
-1 -1;
#X obj 318 583 bng 15 250 50 0 empty empty empty 17 7 0 10 -262144
-1 -1;
#X msg 412 406 set 1.33299;
#X obj 194 263 t a b;
#X msg 207 132 0;
#X obj 171 114 bng 15 250 50 0 empty empty empty 17 7 0 10 -262144
-1 -1;
#X obj 168 72 t b b;
#N canvas 775 238 450 300 time 0;
#X obj 137 213 r send-mensaje;
#X obj 101 121 inlet;
#N canvas 753 453 450 300 tiempo 0;
#X obj 74 182 s;
#X obj 47 23 inlet;
#X obj 238 40 inlet;
#X msg 240 79 set 1.33299;
#X obj 48 45 t b b;
#X msg 83 80 symbol LoadGeneralTime;
#X obj 227 128 t b a;
#X connect 1 0 4 0;
#X connect 2 0 3 0;
#X connect 3 0 6 0;
#X connect 4 0 3 0;
#X connect 4 1 5 0;
#X connect 5 0 0 1;
#X connect 6 0 0 0;
#X connect 6 1 0 0;
#X restore 104 241 pd tiempo;
#X connect 0 0 2 1;
#X connect 1 0 2 0;
#X restore 356 606 pd time;
#X obj 153 468 route 1 2 3 4 5 6 7 8 9 10 11 12;
#X obj 69 348 metro 100;
#X obj 111 553 route 18 19 20 21 22 23 24 25 26 27 28 29 30 31 32 33
34 35;
#N canvas 321 228 978 297 EnvlopeGrains 0;
#X obj 43 43 inlet;
#X obj 65 130 r send-mensaje;
#N canvas 699 325 450 300 radioIzq 0;
#X obj 100 143 s;
#X obj 47 23 inlet;
#X obj 208 42 inlet;
#X msg 210 81 set 1.33299;
#X msg 211 124 1;
#X obj 48 45 t b b b;
#X msg 77 77 symbol rRadioIzq;
#X connect 1 0 5 0;
#X connect 2 0 3 0;
#X connect 3 0 4 0;
#X connect 4 0 0 0;
#X connect 5 0 4 0;
#X connect 5 1 3 0;
#X connect 5 2 6 0;
#X connect 6 0 0 1;
#X restore 46 163 pd radioIzq;
#X obj 178 44 inlet;
#X obj 200 131 r send-mensaje;
#N canvas 699 325 450 300 radioDer 0;
#X obj 100 143 s;
#X obj 47 23 inlet;
#X obj 208 42 inlet;
#X msg 210 81 set 1.33299;
#X msg 211 124 1;
#X obj 48 45 t b b b;
#X msg 77 77 symbol rRadioDer;
#X connect 1 0 5 0;
#X connect 2 0 3 0;
#X connect 3 0 4 0;
#X connect 4 0 0 0;
#X connect 5 0 4 0;
#X connect 5 1 3 0;
#X connect 5 2 6 0;
#X connect 6 0 0 1;
#X restore 181 164 pd radioDer;
#X obj 325 46 inlet;
#X obj 347 133 r send-mensaje;
#N canvas 502 455 450 300 slideIzq 0;
#X obj 100 143 s;
#X obj 47 23 inlet;
#X obj 208 42 inlet;
#X msg 210 81 set 1.33299;
#X msg 211 124 1.33299;
#X obj 48 45 t b b b;
#X msg 77 77 symbol rSlideIzq;
#X connect 1 0 5 0;
#X connect 2 0 3 0;
#X connect 3 0 4 0;
#X connect 4 0 0 0;
#X connect 5 0 4 0;
#X connect 5 1 3 0;
#X connect 5 2 6 0;
#X connect 6 0 0 1;
#X restore 328 166 pd slideIzq;
#X obj 452 42 inlet;
#X obj 474 129 r send-mensaje;
#N canvas 502 455 450 300 slideCen 0;
#X obj 100 143 s;
#X obj 47 23 inlet;
#X obj 208 42 inlet;
#X msg 210 81 set 1.33299;
#X msg 211 124 58.5246;
#X obj 48 45 t b b b;
#X msg 77 77 symbol rSlideCen;
#X connect 1 0 5 0;
#X connect 2 0 3 0;
#X connect 3 0 4 0;
#X connect 4 0 0 0;
#X connect 5 0 4 0;
#X connect 5 1 3 0;
#X connect 5 2 6 0;
#X connect 6 0 0 1;
#X restore 455 162 pd slideCen;
#X obj 573 41 inlet;
#X obj 595 128 r send-mensaje;
#N canvas 502 455 450 300 SlideDer 0;
#X obj 100 143 s;
#X obj 47 23 inlet;
#X obj 208 42 inlet;
#X msg 210 81 set 1.33299;
#X msg 211 124 1.33299;
#X obj 48 45 t b b b;
#X msg 77 77 symbol rSlideDer;
#X connect 1 0 5 0;
#X connect 2 0 3 0;
#X connect 3 0 4 0;
#X connect 4 0 0 0;
#X connect 5 0 4 0;
#X connect 5 1 3 0;
#X connect 5 2 6 0;
#X connect 6 0 0 1;
#X restore 576 161 pd SlideDer;
#X connect 0 0 2 0;
#X connect 1 0 2 1;
#X connect 3 0 5 0;
#X connect 4 0 5 1;
#X connect 6 0 8 0;
#X connect 7 0 8 1;
#X connect 9 0 11 0;
#X connect 10 0 11 1;
#X connect 12 0 14 0;
#X connect 13 0 14 1;
#X restore 411 604 pd EnvlopeGrains;
#X obj 166 176 counter 35;
#X obj 117 316 route 35;
#X connect 0 0 4 0;
#X connect 0 0 14 0;
#X connect 1 0 0 0;
#X connect 2 0 0 0;
#X connect 3 0 0 0;
#X connect 5 0 19 0;
#X connect 5 0 36 0;
#X connect 6 0 7 0;
#X connect 7 0 0 0;
#X connect 8 0 10 0;
#X connect 8 1 2 0;
#X connect 8 2 7 0;
#X connect 9 0 37 0;
#X connect 9 0 47 0;
#X connect 10 0 11 0;
#X connect 11 0 43 0;
#X connect 12 0 10 0;
#X connect 13 0 42 0;
#X connect 13 0 44 0;
#X connect 14 0 5 0;
#X connect 14 0 23 0;
#X connect 15 0 10 1;
#X connect 15 0 38 0;
#X connect 16 0 10 1;
#X connect 17 0 40 0;
#X connect 18 0 8 0;
#X connect 22 0 6 0;
#X connect 37 0 13 0;
#X connect 37 1 3 0;
#X connect 38 0 46 2;
#X connect 39 0 46 3;
#X connect 40 0 8 0;
#X connect 40 1 39 0;
#X connect 42 0 20 0;
#X connect 42 1 20 1;
#X connect 42 2 20 2;
#X connect 42 3 20 3;
#X connect 42 4 20 4;
#X connect 42 5 20 5;
#X connect 42 6 20 6;
#X connect 42 7 20 7;
#X connect 42 8 20 8;
#X connect 42 9 20 9;
#X connect 42 10 20 10;
#X connect 42 11 20 11;
#X connect 43 0 46 0;
#X connect 44 0 21 0;
#X connect 44 0 24 0;
#X connect 44 1 21 1;
#X connect 44 1 25 0;
#X connect 44 2 21 2;
#X connect 44 2 26 0;
#X connect 44 3 21 3;
#X connect 44 3 27 0;
#X connect 44 4 21 4;
#X connect 44 4 28 0;
#X connect 44 5 21 5;
#X connect 44 5 29 0;
#X connect 44 6 21 6;
#X connect 44 6 30 0;
#X connect 44 7 21 7;
#X connect 44 7 31 0;
#X connect 44 8 21 8;
#X connect 44 8 32 0;
#X connect 44 9 21 9;
#X connect 44 9 33 0;
#X connect 44 10 21 10;
#X connect 44 10 34 0;
#X connect 44 11 21 11;
#X connect 44 11 35 0;
#X connect 44 12 41 0;
#X connect 44 13 45 0;
#X connect 44 14 45 1;
#X connect 44 15 45 2;
#X connect 44 16 45 3;
#X connect 44 17 45 4;
#X connect 46 0 9 0;
#X connect 47 0 11 0;
#X connect 47 0 10 1;
#X restore 235 415 pd LOAD;
#X obj 367 196 s nombre_load;
#X obj 367 159 openpanel;
#X obj 172 118 bng 15 250 50 0 empty empty Abrir 17 7 0 10 -262144
-1 -1;
#X symbolatom 172 136 10 0 0 0 - - -;
#X obj 320 240 splitfilename;
#X obj 284 277 t b s;
#X symbolatom 104 137 10 0 0 2 Guardar - -;
#X obj 105 272 s nombre_save;
#X obj 71 240 t b s;
#X text 104 101 LOAD AND SAVE PRESETS;
#X obj 316 196 t s s;
#X symbolatom 427 240 80 0 0 0 - - -;
#X connect 0 0 1 0;
#X connect 2 0 3 0;
#X connect 5 0 14 0;
#X connect 6 0 5 0;
#X connect 8 1 9 0;
#X connect 9 0 2 0;
#X connect 9 1 7 0;
#X connect 10 0 12 0;
#X connect 12 0 0 0;
#X connect 12 1 11 0;
#X connect 14 0 8 0;
#X connect 14 1 4 0;
#X connect 14 1 15 0;
#X coords 0 -1 1 1 150 60 2 100 100;
#X restore 479 -8 pd SAVE-LOAD-DINAMICS;
#X obj -21 23 bng 30 250 50 0 empty empty RUN 0 -10 0 10 -4034 -1 -1
;
#X obj 12 23 bng 30 250 50 0 empty empty RESET 0 -10 0 10 -258113 -1
-1;
#X obj -21 -47 cnv 15 650 25 empty empty DINAMICS_AUTOMATIZATION 20
12 0 14 -260097 -262144 0;
#N canvas 695 107 450 300 control 0;
#X msg -397 25 start;
#X msg -397 48 stop;
#X obj -447 69 my_grainer~;
#X obj -297 170 *~;
#X obj -361 170 *~;
#N canvas 321 254 411 378 my_grainerCtrl 0;
#X msg 241 230 stop;
#X msg 26 230 gtab gtable;
#X obj 295 282 line~;
#X obj 295 153 r restar;
#X obj 295 173 t b b;
#X msg 322 260 0 1;
#X msg 295 260 1 1;
#X obj 295 193 del 20;
#X obj 295 305 outlet~;
#X obj 151 269 outlet;
#X text 22 104 delay de control para evitar clicks al cambiar el contenido
de la tabla de entrada de audio + breve fadein/fadeout;
#N canvas 332 82 263 304 my_grainerInitial 0;
#X obj 85 12 loadbang;
#X obj 136 61 s at;
#X obj 85 32 t b b b b;
#X msg 119 91 0;
#X obj 119 110 s gt;
#X connect 0 0 2 0;
#X connect 2 2 3 0;
#X connect 2 3 1 0;
#X connect 3 0 4 0;
#X restore 124 40 pd my_grainerInitial;
#X text 19 77 ************************************************************
;
#X text 78 9 valores de inicializacin del patch;
#X msg 151 230 atab envelope;
#X msg 111 230 stop;
#X obj 295 213 t b b b b b;
#X connect 0 0 9 0;
#X connect 1 0 9 0;
#X connect 2 0 8 0;
#X connect 3 0 4 0;
#X connect 4 0 7 0;
#X connect 4 1 5 0;
#X connect 5 0 2 0;
#X connect 6 0 2 0;
#X connect 7 0 16 0;
#X connect 14 0 9 0;
#X connect 15 0 9 0;
#X connect 16 0 6 0;
#X connect 16 1 1 0;
#X connect 16 2 15 0;
#X connect 16 3 14 0;
#X connect 16 4 0 0;
#X restore -339 50 pd my_grainerCtrl;
#X obj -447 26 r mess0;
#X obj -352 208 outlet~;
#X obj -294 208 outlet~;
#X obj -345 30 inlet;
#X connect 0 0 2 0;
#X connect 1 0 2 0;
#X connect 2 0 4 0;
#X connect 2 1 3 0;
#X connect 3 0 8 0;
#X connect 4 0 7 0;
#X connect 5 0 2 0;
#X connect 5 1 3 1;
#X connect 5 1 4 1;
#X connect 6 0 2 0;
#X connect 9 0 2 0;
#X restore 676 487 pd control;
#X obj 177 22 nbx 10 30 -1e+37 1e+37 0 0 GeneralTime LoadGeneralTime
GENERAL_TIME_IN_MS 0 -14 0 20 -191407 -1 -1 20000 256;
#X obj 1011 563 writesf~ 2;
#X msg 1012 528 start;
#X msg 1053 527 stop;
#X msg 981 482 open grainer3.wav;
#X connect 1 0 24 0;
#X connect 2 0 24 0;
#X connect 4 0 17 0;
#X connect 5 0 4 0;
#X connect 16 0 4 1;
#X connect 18 0 14 0;
#X connect 21 0 19 1;
#X connect 22 0 19 2;
#X connect 24 0 15 0;
#X connect 24 0 26 0;
#X connect 24 1 15 1;
#X connect 24 1 26 1;
#X connect 25 0 19 0;
#X connect 27 0 26 0;
#X connect 28 0 26 0;
#X connect 29 0 26 0;
#X coords 0 0 1 1 85 60 0;
