#N canvas 330 25 936 589 10;
#X obj 95 60 vsl 15 90 0.01 1 0 0 empty \$0-GUI-gs empty 0 -9 0 10
-262144 -1 -1 360 1;
#X obj 125 60 vsl 15 90 0 2 0 0 empty \$0-GUI-gsr empty 0 -9 0 10 -262144
-1 -1 0 1;
#X floatatom 95 155 4 0 0 0 - - -;
#X floatatom 125 155 4 0 0 0 - - -;
#X msg 95 308 gs \$1;
#X msg 125 278 gsr \$1;
#X obj 235 60 vsl 15 90 0 1 0 0 empty \$0-GUI-gst empty 0 -9 0 10 -262144
-1 -1 0 1;
#X obj 265 60 vsl 15 90 0 1 0 0 empty \$0-GUI-gstr empty 0 -9 0 10
-262144 -1 -1 1780 1;
#X floatatom 235 155 4 0 0 0 - - -;
#X floatatom 265 155 4 0 0 0 - - -;
#X msg 235 308 gst \$1;
#X msg 265 278 gstr \$1;
#X obj 375 60 vsl 15 90 0 90 0 0 empty \$0-GUI-az empty 0 -9 0 10 -262144
-1 -1 4450 1;
#X obj 405 60 vsl 15 90 0 45 0 0 empty \$0-GUI-azr empty 0 -9 0 10
-262144 -1 -1 0 1;
#X floatatom 375 156 4 0 0 0 - - -;
#X floatatom 405 156 4 0 0 0 - - -;
#X msg 375 308 az \$1;
#X msg 405 278 azr \$1;
#X text 103 30 SIZE;
#X text 238 30 START;
#X text 386 30 PAN;
#X obj 435 30 cnv 15 70 100 empty empty empty 13 12 0 10 -191407 -1
0;
#X text 86 42 (secs);
#X text 220 42 (ini:0);
#N canvas 247 22 670 470 my_grainerPresets 0;
#X obj 21 -11 inlet;
#X obj 21 17 route 0 1 2;
#X obj 21 40 bng 15 250 50 0 empty empty empty 17 7 0 10 -262144 -1
-1;
#X obj 42 40 bng 15 250 50 0 empty empty empty 17 7 0 10 -262144 -1
-1;
#X obj 63 40 bng 15 250 50 0 empty empty empty 17 7 0 10 -262144 -1
-1;
#X text 208 355 ARBITRARY PRESETS;
#X text 191 339 #1;
#X text 342 338 #2;
#X text 38 355 DEFAULTS;
#X obj 430 95 s \$0-GUI-ga;
#X msg 21 78 0.1;
#X obj 430 115 s \$0-GUI-gar;
#X obj 430 135 s \$0-GUI-gs;
#X obj 430 155 s \$0-GUI-gsr;
#X obj 430 175 s \$0-GUI-gf;
#X obj 430 195 s \$0-GUI-gfr;
#X obj 430 215 s \$0-GUI-gst;
#X obj 430 235 s \$0-GUI-gstr;
#X obj 430 255 s \$0-GUI-ag;
#X obj 430 275 s \$0-GUI-agr;
#X obj 430 295 s \$0-GUI-az;
#X obj 430 315 s \$0-GUI-azr;
#X msg 21 98 0.001;
#X msg 21 118 0.05;
#X msg 21 138 0;
#X msg 21 178 0;
#X msg 21 158 1;
#X msg 21 198 0;
#X msg 21 218 0.2;
#X msg 21 238 1;
#X msg 21 258 0;
#X msg 21 278 45;
#X msg 21 298 0;
#X msg 181 78 0.1;
#X msg 181 158 1;
#X msg 181 198 0;
#X msg 181 278 45;
#X msg 181 98 0.5;
#X msg 181 118 0.25;
#X msg 181 138 0.5;
#X msg 181 178 0.05;
#X msg 181 218 1;
#X msg 181 238 0.5;
#X msg 181 258 0.25;
#X msg 181 298 30;
#X msg 341 198 0;
#X msg 341 78 0.05;
#X msg 341 98 2;
#X msg 341 118 0.7;
#X msg 341 138 1;
#X msg 341 158 0.5;
#X msg 341 178 1.25;
#X msg 341 218 0.33;
#X msg 341 238 0.2;
#X msg 341 278 27.5;
#X msg 341 298 45;
#X msg 341 258 0.2;
#X connect 0 0 1 0;
#X connect 1 0 2 0;
#X connect 1 1 3 0;
#X connect 1 2 4 0;
#X connect 2 0 10 0;
#X connect 3 0 33 0;
#X connect 4 0 46 0;
#X connect 10 0 9 0;
#X connect 10 0 22 0;
#X connect 22 0 11 0;
#X connect 22 0 23 0;
#X connect 23 0 12 0;
#X connect 23 0 24 0;
#X connect 24 0 13 0;
#X connect 24 0 26 0;
#X connect 25 0 15 0;
#X connect 25 0 27 0;
#X connect 26 0 14 0;
#X connect 26 0 25 0;
#X connect 27 0 16 0;
#X connect 27 0 28 0;
#X connect 28 0 17 0;
#X connect 28 0 29 0;
#X connect 29 0 18 0;
#X connect 29 0 30 0;
#X connect 30 0 19 0;
#X connect 30 0 31 0;
#X connect 31 0 20 0;
#X connect 31 0 32 0;
#X connect 32 0 21 0;
#X connect 33 0 9 0;
#X connect 33 0 37 0;
#X connect 34 0 14 0;
#X connect 34 0 40 0;
#X connect 35 0 16 0;
#X connect 35 0 41 0;
#X connect 36 0 20 0;
#X connect 36 0 44 0;
#X connect 37 0 11 0;
#X connect 37 0 38 0;
#X connect 38 0 12 0;
#X connect 38 0 39 0;
#X connect 39 0 13 0;
#X connect 39 0 34 0;
#X connect 40 0 15 0;
#X connect 40 0 35 0;
#X connect 41 0 17 0;
#X connect 41 0 42 0;
#X connect 42 0 18 0;
#X connect 42 0 43 0;
#X connect 43 0 19 0;
#X connect 43 0 36 0;
#X connect 44 0 21 0;
#X connect 45 0 52 0;
#X connect 45 0 16 0;
#X connect 46 0 47 0;
#X connect 46 0 9 0;
#X connect 47 0 48 0;
#X connect 47 0 11 0;
#X connect 48 0 49 0;
#X connect 48 0 12 0;
#X connect 49 0 50 0;
#X connect 49 0 13 0;
#X connect 50 0 51 0;
#X connect 50 0 14 0;
#X connect 51 0 45 0;
#X connect 51 0 15 0;
#X connect 52 0 53 0;
#X connect 52 0 17 0;
#X connect 53 0 56 0;
#X connect 53 0 18 0;
#X connect 54 0 55 0;
#X connect 54 0 20 0;
#X connect 55 0 21 0;
#X connect 56 0 54 0;
#X connect 56 0 19 0;
#X restore 439 366 pd my_grainerPresets;
#X obj 439 58 vradio 15 1 0 3 empty \$0-GUI-presets empty 0 -8 0 10
-262144 -1 -1 0;
#X text 456 56 Default;
#X text 456 70 #1;
#X text 457 85 #2;
#X text 122 42 dev;
#X obj 15 30 cnv 15 70 145 empty empty empty 20 12 0 14 -233017 -66577
0;
#X obj 25 60 vsl 15 90 0.01 1 0 0 \$0-gap-tiempo \$0-GUI-ga empty 0
-9 0 10 -262144 -1 -1 809 1;
#X obj 55 60 vsl 15 90 0 2 0 0 \$0-gap-dev \$0-GUI-gar empty 0 -9 0
10 -262144 -1 -1 4 1;
#X floatatom 25 155 4 0 0 0 - - -;
#X floatatom 55 155 4 0 0 0 - - -;
#X msg 25 308 ga \$1;
#X msg 55 278 gar \$1;
#X text 36 30 GAP;
#X text 15 42 (secs);
#X text 52 42 dev;
#X text 262 42 dev;
#X text 401 42 dev;
#X text 367 42 (deg);
#X obj 155 30 cnv 15 70 145 empty empty empty 20 12 0 14 -233017 -66577
0;
#X obj 295 30 cnv 15 70 145 empty empty empty 20 12 0 14 -233017 -66577
0;
#X obj 165 60 vsl 15 90 -0.5 2 0 0 empty \$0-GUI-gf empty 0 -9 0 10
-262144 -1 -1 5340 1;
#X obj 195 60 vsl 15 90 0 2 0 0 empty \$0-GUI-gfr empty 0 -9 0 10 -262144
-1 -1 0 1;
#X floatatom 165 155 4 0 0 0 - - -;
#X floatatom 195 155 4 0 0 0 - - -;
#X msg 165 308 gf \$1;
#X msg 195 278 gfr \$1;
#X text 175 30 INCR;
#X text 194 42 dev;
#X text 153 42 (nor:1);
#X obj 305 60 vsl 15 90 0.001 2 0 0 empty \$0-GUI-ag empty 0 -9 0 10
-262144 -1 -1 4448 1;
#X obj 335 60 vsl 15 90 0 2 0 0 empty \$0-GUI-agr empty 0 -9 0 10 -262144
-1 -1 0 1;
#X floatatom 305 155 4 0 0 0 - - -;
#X floatatom 335 155 4 0 0 0 - - -;
#X msg 305 308 ag \$1;
#X msg 335 278 agr \$1;
#X text 316 30 AMP;
#X text 298 42 (0-1);
#X text 332 42 dev;
#X text 447 30 PRESETS;
#X obj 469 295 any;
#X obj 469 325 outlet;
#X obj 435 135 cnv 15 70 40 empty empty empty 13 12 0 10 -191407 -1
0;
#X obj 453 144 hradio 15 1 0 2 empty empty empty 0 -8 0 10 -262144
-1 -1 0;
#X text 446 157 St. Amb.;
#X obj 653 180 sel 0 1;
#X msg 698 286 range 0 90;
#X msg 717 336 range 0 360;
#X obj 671 366 s \$0-GUI-az;
#X obj 671 266 t b b;
#X obj 690 316 t b b;
#X obj 801 159 sel 0 1;
#X obj 801 266 t b b;
#X obj 820 316 t b b;
#X msg 828 286 range 0 45;
#X msg 847 336 range 0 180;
#X obj 801 366 s \$0-GUI-azr;
#X msg 779 127 0;
#X obj 752 -18 loadbang;
#X msg 752 41 0;
#X obj 752 22 t b b;
#X obj 752 2 del 30;
#X connect 0 0 2 0;
#X connect 1 0 3 0;
#X connect 2 0 4 0;
#X connect 3 0 5 0;
#X connect 4 0 65 0;
#X connect 5 0 64 0;
#X connect 6 0 8 0;
#X connect 7 0 9 0;
#X connect 8 0 10 0;
#X connect 9 0 11 0;
#X connect 10 0 65 0;
#X connect 11 0 64 0;
#X connect 12 0 14 0;
#X connect 13 0 15 0;
#X connect 14 0 16 0;
#X connect 15 0 17 0;
#X connect 16 0 65 0;
#X connect 17 0 64 0;
#X connect 25 0 24 0;
#X connect 31 0 33 0;
#X connect 32 0 34 0;
#X connect 33 0 35 0;
#X connect 34 0 36 0;
#X connect 35 0 65 0;
#X connect 36 0 64 0;
#X connect 45 0 47 0;
#X connect 46 0 48 0;
#X connect 47 0 49 0;
#X connect 48 0 50 0;
#X connect 49 0 65 0;
#X connect 50 0 64 0;
#X connect 54 0 56 0;
#X connect 55 0 57 0;
#X connect 56 0 58 0;
#X connect 57 0 59 0;
#X connect 58 0 65 0;
#X connect 59 0 64 0;
#X connect 64 0 65 0;
#X connect 67 0 69 0;
#X connect 67 0 75 0;
#X connect 69 0 73 0;
#X connect 69 1 74 0;
#X connect 70 0 72 0;
#X connect 71 0 72 0;
#X connect 73 0 72 0;
#X connect 73 1 70 0;
#X connect 74 0 72 0;
#X connect 74 1 71 0;
#X connect 75 0 76 0;
#X connect 75 1 77 0;
#X connect 76 0 80 0;
#X connect 76 1 78 0;
#X connect 77 0 80 0;
#X connect 77 1 79 0;
#X connect 78 0 80 0;
#X connect 79 0 80 0;
#X connect 81 0 67 0;
#X connect 82 0 85 0;
#X connect 83 0 25 0;
#X connect 84 0 83 0;
#X connect 84 1 81 0;
#X connect 85 0 84 0;
#X coords 0 -1 1 1 498 168 1 10 10;
