#N canvas 161 124 1280 700 10;
#X obj 95 226 vsl 15 90 0.01 1 0 0 \$0-size \$1-GUI-gs empty 0 -9 0
10 -262144 -1 -1 0 1;
#X obj 125 226 vsl 15 90 0 2 0 0 \$0-size-d \$1-GUI-gsr empty 0 -9
0 10 -262144 -1 -1 0 1;
#X floatatom 95 321 4 0 0 0 - - -;
#X floatatom 125 321 4 0 0 0 - - -;
#X obj 235 226 vsl 15 90 0 1 0 0 \$0-start \$1-GUI-gst empty 0 -9 0
10 -262144 -1 -1 0 1;
#X obj 265 226 vsl 15 90 0 1 0 0 \$0-start-d \$1-GUI-gstr empty 0 -9
0 10 -262144 -1 -1 0 1;
#X floatatom 235 321 4 0 0 0 - - -;
#X floatatom 265 321 4 0 0 0 - - -;
#X obj 375 226 vsl 15 90 0 90 0 0 \$0-pan \$1-GUI-az empty 0 -9 0 10
-262144 -1 -1 0 1;
#X obj 405 226 vsl 15 90 0 45 0 0 \$0-pan-d \$1-GUI-azr empty 0 -9
0 10 -262144 -1 -1 0 1;
#X floatatom 375 322 4 0 0 0 - - -;
#X floatatom 405 322 4 0 0 0 - - -;
#X text 103 196 SIZE;
#X text 238 196 START;
#X text 386 196 PAN;
#X text 86 208 (secs);
#X text 220 208 (ini:0);
#X text 122 208 dev;
#X obj 15 196 cnv 15 70 145 empty empty empty 20 12 0 14 -233017 -66577
0;
#X obj 25 226 vsl 15 90 0.01 1 0 0 \$0-gap \$1-GUI-ga empty 0 -9 0
10 -262144 -1 -1 0 1;
#X obj 55 226 vsl 15 90 0 2 0 0 \$0-gap-d \$1-GUI-gar empty 0 -9 0
10 -262144 -1 -1 0 1;
#X floatatom 25 321 4 0 0 0 - - -;
#X floatatom 55 321 4 0 0 0 - - -;
#X text 36 196 GAP;
#X text 15 208 (secs);
#X text 52 208 dev;
#X text 262 208 dev;
#X text 401 208 dev;
#X text 367 208 (deg);
#X obj 155 196 cnv 15 70 145 empty empty empty 20 12 0 14 -233017 -66577
0;
#X obj 295 196 cnv 15 70 145 empty empty empty 20 12 0 14 -233017 -66577
0;
#X obj 165 226 vsl 15 90 -0.5 2 0 0 \$0-incr \$1-GUI-gf empty 0 -9
0 10 -262144 -1 -1 1780 1;
#X obj 195 226 vsl 15 90 0 2 0 0 \$0-incr-d \$1-GUI-gfr empty 0 -9
0 10 -262144 -1 -1 0 1;
#X floatatom 165 321 4 0 0 0 - - -;
#X floatatom 195 321 4 0 0 0 - - -;
#X text 175 196 INCR;
#X text 194 208 dev;
#X text 153 208 (nor:1);
#X obj 305 226 vsl 15 90 0.001 2 0 0 \$0-amp \$1-GUI-ag empty 0 -9
0 10 -262144 -1 -1 0 1;
#X obj 335 226 vsl 15 90 0 2 0 0 \$0-amp-d \$1-GUI-agr empty 0 -9 0
10 -262144 -1 -1 0 1;
#X floatatom 305 321 4 0 0 0 - - -;
#X floatatom 335 321 4 0 0 0 - - -;
#X text 316 196 AMP;
#X text 298 208 (0-1);
#X text 332 208 dev;
#X obj 367 153 cnv 15 70 40 empty empty empty 13 12 0 10 -191407 -1
0;
#X obj 385 162 hradio 15 1 0 2 empty empty empty 0 -8 0 10 -262144
-1 -1 0;
#X text 378 175 St. Amb.;
#X floatatom 25 73 5 0 0 0 - - -;
#X obj -6 56 r GAP-sec;
#X floatatom 55 130 5 0 0 0 - - -;
#X obj 23 113 r GAP-dev;
#X floatatom 95 73 5 0 0 0 - - -;
#X floatatom 125 127 5 0 0 0 - - -;
#X obj 64 56 r SIZE-sec;
#X obj 93 110 r SIZE-dev;
#X floatatom 166 74 5 0 0 0 - - -;
#X floatatom 196 128 5 0 0 0 - - -;
#X obj 164 111 r INC-dev;
#X floatatom 235 74 5 0 0 0 - - -;
#X floatatom 265 128 5 0 0 0 - - -;
#X obj 233 111 r START-dev;
#X floatatom 307 73 5 0 0 0 - - -;
#X floatatom 337 127 5 0 0 0 - - -;
#X obj 305 110 r AMP-dev;
#X floatatom 371 72 5 0 0 0 - - -;
#X floatatom 401 126 5 0 0 0 - - -;
#X obj 369 109 r PAN-dev;
#X obj 135 57 r INC-nor;
#X obj 276 56 r AMP-0-1;
#X obj 340 55 r PAN-deg;
#X obj 204 57 r START-ini;
#X msg 117 535 gs \$1;
#X msg 147 505 gsr \$1;
#X msg 257 535 gst \$1;
#X msg 287 505 gstr \$1;
#X msg 397 535 az \$1;
#X msg 427 505 azr \$1;
#X msg 47 535 ga \$1;
#X msg 77 505 gar \$1;
#X msg 187 535 gf \$1;
#X msg 217 505 gfr \$1;
#X msg 327 535 ag \$1;
#X msg 357 505 agr \$1;
#X obj 491 522 any;
#X obj 491 552 outlet;
#X obj 681 169 sel 0 1;
#X msg 708 296 range 0 90;
#X msg 727 346 range 0 360;
#X obj 681 376 s \$0-GUI-az;
#X obj 681 276 t b b;
#X obj 700 326 t b b;
#X obj 811 169 sel 0 1;
#X obj 811 276 t b b;
#X obj 830 326 t b b;
#X msg 838 296 range 0 45;
#X msg 857 346 range 0 180;
#X obj 811 376 s \$0-GUI-azr;
#X msg 789 137 0;
#X obj 762 -8 loadbang;
#X msg 762 51 0;
#X obj 762 32 t b b;
#X obj 762 12 del 30;
#X obj 22 358 s I-gapsec;
#X obj 94 358 s I-sizesec;
#X obj 166 359 s I-incnor;
#X obj 239 359 s I-starini;
#X obj 307 359 s I-amp01;
#X obj 382 359 s I-pandeg;
#X obj 22 400 s I-gapdev;
#X obj 94 401 s I-sizedev;
#X obj 166 402 s I-incdev;
#X obj 238 403 s I-startdev;
#X obj 309 403 s I-ampdev;
#X obj 381 404 s I-pandev;
#X obj -261 0 r trece;
#X obj -182 1 r catorce;
#X obj -101 3 r quince;
#X obj -22 4 r dieciseis;
#X obj 53 6 r diecisiete;
#X obj 138 6 r dieciocho;
#X obj 219 8 r diecinueve;
#X obj 308 8 r veinte;
#X obj 379 10 r veintiuno;
#X obj 458 11 r veintidos;
#X obj 539 13 r veintitres;
#X obj 637 15 r veinticuatro;
#X obj -240 104 r allreset;
#X obj -239 129 t b b b b b b b b b b b b;
#X msg -247 164 0;
#X msg -203 164 0;
#X msg -161 164 0;
#X msg -130 163 0;
#X msg -232 187 0;
#X msg -188 187 0;
#X msg -146 187 0;
#X msg -115 186 0;
#X msg -216 211 0;
#X msg -177 212 0;
#X msg -137 212 0;
#X msg -106 211 0;
#X connect 0 0 2 0;
#X connect 0 0 104 0;
#X connect 1 0 3 0;
#X connect 1 0 110 0;
#X connect 2 0 72 0;
#X connect 3 0 73 0;
#X connect 4 0 6 0;
#X connect 4 0 106 0;
#X connect 5 0 7 0;
#X connect 5 0 112 0;
#X connect 6 0 74 0;
#X connect 7 0 75 0;
#X connect 8 0 10 0;
#X connect 8 0 108 0;
#X connect 9 0 11 0;
#X connect 9 0 114 0;
#X connect 10 0 76 0;
#X connect 11 0 77 0;
#X connect 19 0 21 0;
#X connect 19 0 103 0;
#X connect 20 0 22 0;
#X connect 20 0 109 0;
#X connect 21 0 78 0;
#X connect 22 0 79 0;
#X connect 31 0 33 0;
#X connect 31 0 105 0;
#X connect 32 0 34 0;
#X connect 32 0 111 0;
#X connect 33 0 80 0;
#X connect 34 0 81 0;
#X connect 38 0 40 0;
#X connect 38 0 107 0;
#X connect 39 0 41 0;
#X connect 39 0 113 0;
#X connect 40 0 82 0;
#X connect 41 0 83 0;
#X connect 46 0 86 0;
#X connect 46 0 92 0;
#X connect 48 0 19 0;
#X connect 49 0 48 0;
#X connect 50 0 20 0;
#X connect 51 0 50 0;
#X connect 52 0 0 0;
#X connect 53 0 1 0;
#X connect 54 0 52 0;
#X connect 55 0 53 0;
#X connect 56 0 31 0;
#X connect 57 0 32 0;
#X connect 58 0 57 0;
#X connect 59 0 4 0;
#X connect 60 0 5 0;
#X connect 61 0 60 0;
#X connect 62 0 38 0;
#X connect 63 0 39 0;
#X connect 64 0 63 0;
#X connect 65 0 8 0;
#X connect 66 0 9 0;
#X connect 67 0 66 0;
#X connect 68 0 56 0;
#X connect 69 0 62 0;
#X connect 70 0 65 0;
#X connect 71 0 59 0;
#X connect 72 0 85 0;
#X connect 73 0 84 0;
#X connect 74 0 85 0;
#X connect 75 0 84 0;
#X connect 76 0 85 0;
#X connect 77 0 84 0;
#X connect 78 0 85 0;
#X connect 79 0 84 0;
#X connect 80 0 85 0;
#X connect 81 0 84 0;
#X connect 82 0 85 0;
#X connect 83 0 84 0;
#X connect 84 0 85 0;
#X connect 86 0 90 0;
#X connect 86 1 91 0;
#X connect 87 0 89 0;
#X connect 88 0 89 0;
#X connect 90 0 89 0;
#X connect 90 1 87 0;
#X connect 91 0 89 0;
#X connect 91 1 88 0;
#X connect 92 0 93 0;
#X connect 92 1 94 0;
#X connect 93 0 97 0;
#X connect 93 1 95 0;
#X connect 94 0 97 0;
#X connect 94 1 96 0;
#X connect 95 0 97 0;
#X connect 96 0 97 0;
#X connect 98 0 46 0;
#X connect 99 0 102 0;
#X connect 101 0 100 0;
#X connect 101 1 98 0;
#X connect 102 0 101 0;
#X connect 115 0 19 0;
#X connect 116 0 20 0;
#X connect 117 0 0 0;
#X connect 118 0 1 0;
#X connect 119 0 31 0;
#X connect 120 0 32 0;
#X connect 121 0 4 0;
#X connect 122 0 5 0;
#X connect 123 0 38 0;
#X connect 124 0 39 0;
#X connect 125 0 8 0;
#X connect 126 0 9 0;
#X connect 128 0 129 0;
#X connect 128 1 133 0;
#X connect 128 2 137 0;
#X connect 128 3 130 0;
#X connect 128 4 134 0;
#X connect 128 5 138 0;
#X connect 128 6 131 0;
#X connect 128 7 135 0;
#X connect 128 8 139 0;
#X connect 128 9 132 0;
#X connect 128 10 136 0;
#X connect 128 11 140 0;
#X connect 129 0 19 0;
#X connect 130 0 1 0;
#X connect 131 0 4 0;
#X connect 132 0 5 0;
#X connect 133 0 20 0;
#X connect 134 0 31 0;
#X connect 135 0 38 0;
#X connect 136 0 39 0;
#X connect 137 0 0 0;
#X connect 138 0 32 0;
#X connect 139 0 8 0;
#X connect 140 0 9 0;
#X coords 0 -1 1 1 450 200 1 10 150;
